<?xml version="1.0" encoding="UTF-8"?>
<svg id="Layer_1" data-name="Layer 1" xmlns="http://www.w3.org/2000/svg" viewBox="0 0 1920 1080">
  <defs>
    <style>
      .cls-1 {
        fill: none;
        stroke: #5f0f33;
        stroke-miterlimit: 10;
        stroke-width: 6px;
      }

      .cls-2, .cls-3 {
        fill: #fff;
      }

      .cls-4 {
        fill: #ddd;
      }

      .cls-5 {
        fill: #313231;
      }

      .cls-6, .cls-7 {
        fill: #5f0f33;
      }

      .cls-3 {
        font-family: Poppins-SemiBold, Poppins;
        font-size: 51.89px;
        font-weight: 600;
      }

      .cls-7 {
        fill-rule: evenodd;
      }
    </style>
  </defs>
  <rect class="cls-6" x="799" y="701.5" width="378" height="84" rx="17.82" ry="17.82"/>
  <g>
    <g>
      <path class="cls-1" d="M246.37,658.5v42.58c0,69.3,56.18,125.47,125.47,125.47H1619.04c36.12,0,68.67-15.26,91.56-39.68"/>
      <polygon class="cls-6" points="1717.88 813.12 1705.55 792.36 1682.06 786.82 1731.13 757.51 1717.88 813.12"/>
    </g>
    <g>
      <path class="cls-4" d="M283.69,429.74c1.7,1.7,3.36,3.44,4.94,5.26l10.95-10.95-5.1-5.1-10.79,10.79Z"/>
      <path class="cls-4" d="M298.79,448.79c1.31,2.12,2.55,4.28,3.71,6.49l31.24-31.24-5.1-5.1-29.85,29.85Z"/>
      <path class="cls-4" d="M309.36,471.36c.87,2.59,1.63,5.22,2.31,7.89l55.21-55.21-5.1-5.1-52.42,52.42Z"/>
      <path class="cls-4" d="M314.86,499.48c.05,.74,.12,1.49,.15,2.23,.12,2.64,.08,5.26-.05,7.86l85.53-85.53-5.1-5.1-80.53,80.53Z"/>
      <path class="cls-4" d="M308.83,537.59c-3.41,8.59-8.08,16.65-13.78,23.97l137.51-137.51-5.1-5.1-118.64,118.64Z"/>
      <rect class="cls-4" x="271.55" y="497.89" width="226.28" height="7.21" transform="translate(-241.94 418.9) rotate(-45)"/>
      <rect class="cls-4" x="304.58" y="497.89" width="226.28" height="7.21" transform="translate(-232.26 442.26) rotate(-45)"/>
      <path class="cls-4" d="M373.99,584.05l132.2-132.21c1.57-5.24,3.37-10.43,5.37-15.57l-142.68,142.67,5.1,5.1Z"/>
      <path class="cls-4" d="M405.56,584.05l93.53-93.53c.23-3.75,.58-7.51,1.1-11.29l-99.73,99.73,5.1,5.1Z"/>
      <path class="cls-4" d="M433.71,578.95l5.1,5.1,61.47-61.47c-.35-3.11-.64-6.21-.88-9.32l-65.69,65.69Z"/>
      <path class="cls-4" d="M466.96,578.95l5.1,5.1,33.06-33.06c-.65-2.78-1.26-5.58-1.81-8.39l-36.35,36.35Z"/>
      <path class="cls-4" d="M501.01,578.95l5.1,5.1,6.86-6.86c-.92-2.5-1.82-5.01-2.65-7.55l-9.31,9.31Z"/>
      <path class="cls-4" d="M877.49,434.4c.91,2.52,1.78,5.05,2.59,7.61l17.97-17.97-5.1-5.1-15.46,15.46Z"/>
      <path class="cls-4" d="M885.3,461.45c.62,2.82,1.2,5.64,1.72,8.47l45.88-45.88-5.1-5.1-42.5,42.5Z"/>
      <path class="cls-4" d="M889.74,488.66c.33,3.12,.61,6.24,.83,9.36l73.97-73.97-5.1-5.1-69.71,69.71Z"/>
      <path class="cls-4" d="M890.72,520.93c-.27,3.78-.64,7.58-1.2,11.39l108.27-108.27-5.1-5.1-101.98,101.98Z"/>
      <path class="cls-4" d="M882.37,562.52c-1.78,5.48-3.81,10.91-6.05,16.25l154.72-154.72-5.1-5.1-143.57,143.57Z"/>
      <rect class="cls-4" x="868.6" y="497.89" width="226.28" height="7.21" transform="translate(-67.07 841.08) rotate(-45)"/>
      <path class="cls-4" d="M966.82,554.76l84.56-84.56c1.37-5.27,3.13-10.41,5.22-15.42l-96.4,96.4c2.32,.98,4.6,2.13,6.62,3.58Z"/>
      <path class="cls-4" d="M1047.82,496.81l-65.61,65.61c3.31,.03,6.6,.14,9.9,.3l56.08-56.08c-.1-1.34-.21-2.68-.27-4.03-.09-1.94-.1-3.88-.09-5.8Z"/>
      <path class="cls-4" d="M1013.34,564.55c.66,.08,1.32,.14,1.98,.22,3.14-.84,6.4-1.37,9.71-1.71l28.1-28.1c-.76-2.69-1.43-5.41-2.03-8.16l-37.76,37.76Z"/>
      <path class="cls-4" d="M1047.41,563.72c2.94,.43,5.84,.94,8.63,1.56l6.33-6.33c-1.13-2.29-2.22-4.61-3.23-6.96l-11.73,11.73Z"/>
      <path class="cls-4" d="M1281.08,429.79c1.38,2.03,2.73,4.08,4.01,6.19l11.94-11.94-5.1-5.1-10.85,10.85Z"/>
      <path class="cls-4" d="M1293,451.12c1.06,2.37,2.07,4.76,3,7.19l34.27-34.27-5.1-5.1-32.18,32.18Z"/>
      <path class="cls-4" d="M1301.11,474.66c.68,2.76,1.31,5.54,1.83,8.36l58.98-58.98-5.1-5.1-55.72,55.72Z"/>
      <path class="cls-4" d="M1305.22,505.4c.07,3.52,0,7.01-.27,10.47l91.82-91.82-5.1-5.1-86.45,86.45Z"/>
      <path class="cls-4" d="M1298.48,545.38c-2.43,6.66-5.47,13.09-9.03,19.22l140.57-140.57-5.1-5.1-126.44,126.44Z"/>
      <rect class="cls-4" x="1267.58" y="497.89" width="226.28" height="7.21" transform="translate(49.79 1123.2) rotate(-45)"/>
      <rect class="cls-4" x="1299.63" y="497.89" width="226.28" height="7.21" transform="translate(59.18 1145.86) rotate(-45)"/>
      <path class="cls-4" d="M1369.76,584.05l128.31-128.31c1.85-5.63,4.01-11.19,6.44-16.63l-139.85,139.85,5.1,5.1Z"/>
      <path class="cls-4" d="M1403.01,584.05l87.6-87.6c.1-3.65,.42-7.34,.84-11.04l-93.54,93.54,5.1,5.1Z"/>
      <path class="cls-4" d="M1431.16,578.95l5.1,5.1,56.66-56.66c-.46-3.01-.83-6.02-1.16-9.04l-60.6,60.6Z"/>
      <path class="cls-4" d="M1469.6,572.96c1.41,.07,2.84,.24,4.29,.5,1.46,.26,2.9,.65,4.31,1.09l8.4-8.4c-.52-2.9-1-5.81-1.47-8.73l-15.54,15.54Z"/>
      <path class="cls-4" d="M1844.12,464.06c.65,2.8,1.23,5.61,1.76,8.44"/>
      <path class="cls-4" d="M1848.7,493.09c.28,3.18,.51,6.35,.65,9.52,0,0,0,.02,0,.02"/>
      <path class="cls-4" d="M1847.86,527.08c-.67,4.27-1.56,8.55-2.63,12.82"/>
      <path class="cls-4" d="M1830.21,578.88s-.03,.06-.04,.09l5.08,5.08"/>
      <path class="cls-5" d="M1494.67,498.58h-183.43c-1.92-72.33-61.35-130.58-134.14-130.58s-132.23,58.25-134.14,130.58h-156.39v3.61c0,105.36-85.72,191.08-191.08,191.08s-191.08-85.72-191.08-191.08v-3.61h-187.47c-1.91-55.19-47.4-99.51-103.06-99.51s-101.15,44.32-103.06,99.51h-43.97c1.17,2.22,1.49,4.88,.74,7.21h50.38v-3.61c0-52.88,43.02-95.91,95.91-95.91s95.91,43.02,95.91,95.91v3.61h187.44c1.93,107.69,90.12,194.68,198.26,194.68s196.33-87,198.26-194.68h156.37v-3.61c0-70.02,56.97-126.98,126.98-126.98s126.98,56.96,126.98,126.98v3.61h183.41c.18,9.33,1.11,18.47,2.66,27.4,.63-.07,1.25-.1,1.85-.1,.26,0,.55,.03,.82,.04,.94-.43,1.91-.82,2.88-1.13,.48-.16,.99-.27,1.5-.37-1.63-9.58-2.53-19.41-2.53-29.45v-3.61Z"/>
      <path class="cls-5" d="M1852.91,498.58h-8.54v3.61c0,96.42-78.44,174.85-174.85,174.85-49.92,0-95-21.05-126.89-54.72-1.19,.2-2.43,.33-3.76,.33-.39,0-.76-.04-1.14-.06-.22,.01-.44,.05-.66,.06-1.4,.01-2.76-.1-4.09-.25,33.38,37.89,82.2,61.85,136.54,61.85,99.18,0,180.1-79.73,182.03-178.46h1.58c-.6-2.44-.64-4.88-.22-7.21Z"/>
      <g>
        <path class="cls-5" d="M163.73,592.77c4.3,2.34,8.8,4.39,13.38,6.1l2.51-6.76c-4.26-1.59-8.44-3.49-12.44-5.67l-3.45,6.33Z"/>
        <path class="cls-5" d="M122.63,551.79c2.35,4.27,5.03,8.43,7.98,12.34l5.76-4.33c-2.74-3.64-5.24-7.5-7.42-11.48l-6.32,3.47Z"/>
        <path class="cls-5" d="M140.25,575.21c3.46,3.45,7.2,6.69,11.11,9.61l4.32-5.78c-3.64-2.72-7.12-5.73-10.34-8.94l-5.09,5.11Z"/>
        <path class="cls-5" d="M191.23,602.98c4.76,1.03,9.66,1.72,14.55,2.06l.5-7.19c-4.55-.32-9.1-.96-13.53-1.92l-1.52,7.05Z"/>
        <path class="cls-5" d="M119.36,522.81l-7.04,1.55c1.05,4.79,2.45,9.53,4.17,14.09l6.75-2.53c-1.59-4.25-2.9-8.66-3.88-13.1Z"/>
        <path class="cls-5" d="M302.9,535.79l6.75,2.53c1.71-4.58,3.11-9.33,4.15-14.11l-7.04-1.53c-.97,4.44-2.27,8.86-3.86,13.11Z"/>
        <path class="cls-5" d="M219.95,597.84l.51,7.19c4.89-.35,9.78-1.05,14.54-2.08l-1.53-7.04c-4.43,.96-8.98,1.61-13.53,1.94Z"/>
        <path class="cls-5" d="M289.79,559.71l5.77,4.33c2.94-3.92,5.62-8.07,7.97-12.35l-6.32-3.47c-2.18,3.98-4.68,7.85-7.41,11.49Z"/>
        <path class="cls-5" d="M270.5,578.98l4.32,5.77c3.9-2.92,7.64-6.16,11.1-9.62l-5.09-5.1c-3.22,3.22-6.7,6.23-10.33,8.95Z"/>
        <path class="cls-5" d="M246.59,592.06l2.52,6.76c4.57-1.71,9.07-3.76,13.36-6.11l-3.46-6.33c-3.99,2.18-8.17,4.1-12.42,5.68Z"/>
      </g>
      <g>
        <path class="cls-5" d="M565.24,351.94l4.71,5.46c3.6-3.1,7.35-6.1,11.16-8.92l-4.29-5.8c-3.95,2.93-7.85,6.04-11.58,9.25Z"/>
        <path class="cls-5" d="M544.93,372.19c2.36-.3,4.77-.25,7.03,.52,.56,.19,1.05,.45,1.57,.7,1.94-2.13,3.92-4.24,5.95-6.28l-5.11-5.09c-3.26,3.27-6.43,6.69-9.44,10.16Z"/>
        <path class="cls-5" d="M503.05,450.93l6.97,1.86c1.22-4.58,2.64-9.18,4.2-13.65l-6.81-2.38c-1.62,4.65-3.09,9.41-4.36,14.17Z"/>
        <path class="cls-5" d="M497.58,480.05l7.17,.8c.52-4.71,1.23-9.46,2.11-14.13l-7.09-1.33c-.91,4.84-1.64,9.77-2.19,14.66Z"/>
        <path class="cls-5" d="M589.05,334.32l3.84,6.1c4.02-2.53,8.17-4.94,12.36-7.15l-3.38-6.37c-4.34,2.3-8.66,4.8-12.82,7.43Z"/>
        <path class="cls-5" d="M643.16,310.65l1.87,6.96c4.58-1.23,9.26-2.3,13.92-3.18l-1.34-7.08c-4.84,.91-9.7,2.02-14.45,3.3Z"/>
        <path class="cls-5" d="M864.43,414.48c1.87,3.62,3.67,7.31,5.3,11.04l6.6-2.89c-1.16-2.65-2.41-5.29-3.7-7.91-2.74,0-5.47-.08-8.2-.23Z"/>
        <path class="cls-5" d="M874.96,438.79c1.57,4.48,3,9.07,4.22,13.65l6.96-1.87c-1.28-4.75-2.75-9.51-4.39-14.16l-6.8,2.39Z"/>
        <path class="cls-5" d="M882.38,466.36c.88,4.66,1.6,9.41,2.13,14.12l7.16-.81c-.55-4.88-1.3-9.82-2.21-14.66l-7.08,1.34Z"/>
        <path class="cls-5" d="M615.21,320.45l2.89,6.6c4.34-1.9,8.81-3.66,13.28-5.23l-2.39-6.8c-4.64,1.63-9.28,3.45-13.79,5.43Z"/>
        <path class="cls-5" d="M672.28,305.14l.81,7.17c4.69-.53,9.48-.89,14.24-1.07l-.27-7.2c-4.94,.18-9.91,.56-14.78,1.1Z"/>
        <path class="cls-5" d="M701.62,311.23c4.73,.17,9.53,.52,14.25,1.04l.79-7.17c-4.9-.54-9.87-.9-14.78-1.07l-.26,7.2Z"/>
        <path class="cls-5" d="M729.99,314.37c4.65,.87,9.34,1.93,13.93,3.15l1.85-6.97c-4.77-1.26-9.63-2.37-14.46-3.27l-1.33,7.09Z"/>
      </g>
      <g>
        <path class="cls-5" d="M1111.42,619.7c4.38,2.42,8.94,4.62,13.56,6.53l2.76-6.66c-4.38-1.81-8.69-3.89-12.84-6.18l-3.49,6.31Z"/>
        <path class="cls-5" d="M1139.2,631.19c4.81,1.38,9.75,2.5,14.68,3.33l1.2-7.11c-4.66-.79-9.34-1.84-13.89-3.14l-1.99,6.93Z"/>
        <path class="cls-5" d="M1052.29,553.65c1.25,3.01,2.66,5.97,4.14,8.9,2.61,.22,5.15,.86,7.6,1.76l1.11-.62c-2.3-4.14-4.38-8.45-6.2-12.81l-6.65,2.77Z"/>
        <path class="cls-5" d="M1043.95,524.77c.84,4.94,1.96,9.88,3.35,14.68l6.93-2c-1.31-4.54-2.38-9.21-3.17-13.88l-7.11,1.2Z"/>
        <path class="cls-5" d="M1089.26,599.66c.27,1.64,.41,3.29,.36,4.93,2.93,2.48,5.94,4.88,9.05,7.09l4.18-5.88c-3.86-2.74-7.61-5.72-11.14-8.88l-2.45,2.74Z"/>
        <path class="cls-5" d="M1169.23,628.97l-.39,7.2c2.46,.13,4.93,.2,7.42,.2s5.1-.07,7.62-.21l-.4-7.2c-4.71,.26-9.53,.27-14.24,.01Z"/>
        <path class="cls-5" d="M1270.99,586.73l5.38,4.8c3.33-3.72,6.49-7.69,9.38-11.77l-5.88-4.18c-2.74,3.87-5.73,7.61-8.88,11.14Z"/>
        <path class="cls-5" d="M1197.63,627.37l1.2,7.11c4.94-.84,9.88-1.96,14.68-3.35l-2-6.93c-4.54,1.31-9.21,2.38-13.88,3.17Z"/>
        <path class="cls-5" d="M1298.33,537.25l6.93,1.99c1.38-4.81,2.5-9.75,3.33-14.68l-7.11-1.2c-.79,4.67-1.84,9.34-3.14,13.89Z"/>
        <path class="cls-5" d="M1287.46,563.53l6.31,3.49c2.42-4.38,4.62-8.94,6.53-13.56l-6.66-2.76c-1.81,4.38-3.89,8.69-6.18,12.84Z"/>
        <path class="cls-5" d="M1224.95,619.49l2.77,6.66c4.6-1.91,9.15-4.11,13.54-6.55l-3.5-6.3c-4.15,2.3-8.46,4.38-12.81,6.19Z"/>
        <path class="cls-5" d="M1249.81,605.7l4.18,5.87c4.07-2.9,8.03-6.06,11.75-9.39l-4.81-5.37c-3.52,3.15-7.27,6.15-11.12,8.89Z"/>
      </g>
      <path class="cls-5" d="M213.89,568.83c-36.5,0-66.2-29.7-66.2-66.2,0-16.7,6.24-32.66,17.57-44.92l-5.3-4.89c-12.57,13.6-19.49,31.29-19.49,49.81,0,40.48,32.93,73.41,73.41,73.41,12.73,0,25.27-3.31,36.27-9.57l-3.57-6.27c-9.91,5.65-21.22,8.63-32.7,8.63Z"/>
      <path class="cls-5" d="M1176.26,603.41c-55.81,0-101.22-45.41-101.22-101.22,0-14.78,3.12-29.03,9.26-42.35l-6.55-3.02c-6.58,14.28-9.92,29.54-9.92,45.38,0,59.79,48.64,108.43,108.44,108.43,29.69,0,57.4-11.77,78.02-33.13l-5.19-5.01c-19.25,19.94-45.12,30.93-72.83,30.93Z"/>
      <path class="cls-5" d="M1518.4,502.18c0,9.85,.96,19.55,2.8,29.02,2.46-.33,4.99-.14,7.49,.68-2.03-9.66-3.08-19.6-3.08-29.7,0-78.89,64.18-143.07,143.07-143.07,24.97,0,49.54,6.53,71.07,18.87l3.58-6.25c-22.61-12.97-48.43-19.83-74.65-19.83-82.86,0-150.28,67.42-150.28,150.28Z"/>
      <polygon class="cls-5" points="419.83 377.88 409.89 367.94 399.96 377.88 390.02 367.94 380.09 377.88 370.15 367.94 357.46 380.63 362.56 385.73 370.15 378.14 380.09 388.07 390.02 378.14 399.96 388.07 409.89 378.14 419.83 388.07 432.32 375.59 427.22 370.49 419.83 377.88"/>
      <polygon class="cls-5" points="985.75 405.35 979.25 398.84 972.74 405.35 966.24 398.84 959.73 405.35 953.22 398.84 944.91 407.15 948.25 410.49 953.22 405.52 959.73 412.02 966.24 405.52 972.74 412.02 979.25 405.52 985.75 412.02 993.93 403.85 990.59 400.51 985.75 405.35"/>
      <g>
        <path class="cls-7" d="M453.96,294.45c.05-.77,.08-1.56,.08-2.35,0-18.91-10.92-36.83-33.98-36.83-19.02,0-25.79,10.95-31.08,22.95-2.96-2.54-6.81-4.07-11.01-4.07-9.4,0-17.03,7.68-17.03,17.15,0,1,.09,1.98,.25,2.93-12.83,2.04-22.64,13.23-22.64,26.74,0,14.96,12.03,27.08,26.87,27.08h83.14c14.84,0,26.87-12.12,26.87-27.08,0-13.09-9.22-24.01-21.48-26.53Z"/>
        <path class="cls-2" d="M453.96,294.45c.05-.77,.08-1.56,.08-2.35,0-18.91-10.92-36.83-33.98-36.83-19.02,0-25.79,10.95-31.08,22.95-2.96-2.54-6.81-4.07-11.01-4.07-9.4,0-17.03,7.68-17.03,17.15,0,1,.09,1.98,.25,2.93-12.83,2.04-22.64,13.23-22.64,26.74,0,14.96,12.03,27.08,26.87,27.08h83.14c14.84,0,26.87-12.12,26.87-27.08,0-13.09-9.22-24.01-21.48-26.53Zm-5.39,48.1h-83.14c-11.78,0-21.36-9.68-21.36-21.57,0-10.68,7.57-19.64,18-21.3,1.45-.23,2.75-1.03,3.61-2.23,.86-1.2,1.2-2.69,.95-4.14-.12-.68-.17-1.33-.17-1.99,0-6.42,5.17-11.65,11.52-11.65,2.72,0,5.36,.97,7.42,2.74,1.01,.86,2.28,1.33,3.58,1.33,.41,0,.82-.05,1.22-.14,1.7-.39,3.11-1.55,3.82-3.15,5.62-12.76,11.44-19.67,26.04-19.67,21.02,0,28.48,16.87,28.48,31.32,0,.62-.02,1.29-.07,1.98-.18,2.74,1.69,5.2,4.38,5.76,9.9,2.03,17.08,10.92,17.08,21.14,0,11.9-9.58,21.57-21.36,21.57Z"/>
      </g>
      <path class="cls-5" d="M454.62,293.02c0-.3,.01-.61,.01-.91,0-19.24-11.07-38.66-35.82-38.66-19.22,0-26.72,10.97-31.81,21.95-3.04-1.99-6.61-3.06-10.27-3.06-10.4,0-18.86,8.52-18.86,18.99,0,.48,.02,.96,.06,1.45-13.11,2.91-22.45,14.5-22.45,28.21,0,15.94,12.88,28.91,28.7,28.91h83.14c15.83,0,28.7-12.97,28.7-28.91,0-13.15-8.91-24.66-21.41-27.96Zm-7.29,53.21h-83.14c-13.8,0-25.03-11.32-25.03-25.24,0-12.5,8.87-22.98,21.1-24.92l1.83-.29-.31-1.83c-.15-.88-.23-1.76-.23-2.62,0-8.45,6.82-15.32,15.19-15.32,3.6,0,7.08,1.29,9.81,3.63l1.88,1.61,1-2.26c5.08-11.52,11.15-21.86,29.4-21.86,22.21,0,32.15,17.57,32.15,34.99,0,.75-.03,1.49-.08,2.22l-.1,1.6,1.57,.32c11.59,2.38,20.01,12.78,20.01,24.73,0,13.92-11.23,25.24-25.03,25.24Z"/>
      <g>
        <path class="cls-7" d="M1017.9,331.78c.05-.77,.08-1.56,.08-2.35,0-18.91-10.92-36.83-33.98-36.83-19.02,0-25.79,10.95-31.08,22.95-2.96-2.54-6.81-4.07-11.01-4.07-9.4,0-17.03,7.68-17.03,17.15,0,1,.09,1.98,.25,2.93-12.83,2.04-22.64,13.23-22.64,26.74,0,14.96,12.03,27.08,26.87,27.08h83.14c14.84,0,26.87-12.12,26.87-27.08,0-13.09-9.22-24.01-21.48-26.53Z"/>
        <path class="cls-2" d="M1017.9,331.78c.05-.77,.08-1.56,.08-2.35,0-18.91-10.92-36.83-33.98-36.83-19.02,0-25.79,10.95-31.08,22.95-2.96-2.54-6.81-4.07-11.01-4.07-9.4,0-17.03,7.68-17.03,17.15,0,1,.09,1.98,.25,2.93-12.83,2.04-22.64,13.23-22.64,26.74,0,14.96,12.03,27.08,26.87,27.08h83.14c14.84,0,26.87-12.12,26.87-27.08,0-13.09-9.22-24.01-21.48-26.53Zm-5.39,48.1h-83.14c-11.78,0-21.36-9.68-21.36-21.57,0-10.68,7.57-19.64,18-21.3,1.45-.23,2.75-1.03,3.61-2.23,.86-1.2,1.2-2.69,.95-4.14-.12-.68-.17-1.33-.17-1.99,0-6.42,5.17-11.65,11.52-11.65,2.72,0,5.36,.97,7.42,2.74,1.01,.86,2.28,1.33,3.58,1.33,.41,0,.82-.05,1.22-.14,1.7-.39,3.11-1.55,3.82-3.15,5.62-12.76,11.44-19.67,26.04-19.67,21.02,0,28.48,16.87,28.48,31.32,0,.62-.02,1.29-.07,1.98-.18,2.74,1.69,5.2,4.38,5.76,9.9,2.03,17.08,10.92,17.08,21.14,0,11.9-9.58,21.57-21.36,21.57Z"/>
      </g>
      <path class="cls-5" d="M1018.57,330.35c0-.3,.01-.61,.01-.91,0-19.24-11.07-38.66-35.82-38.66-19.22,0-26.72,10.97-31.81,21.95-3.04-1.99-6.61-3.06-10.27-3.06-10.4,0-18.86,8.52-18.86,18.99,0,.48,.02,.96,.06,1.45-13.11,2.91-22.45,14.5-22.45,28.21,0,15.94,12.88,28.91,28.7,28.91h83.14c15.83,0,28.7-12.97,28.7-28.91,0-13.15-8.91-24.66-21.41-27.96Zm-7.29,53.21h-83.14c-13.8,0-25.03-11.32-25.03-25.24,0-12.5,8.87-22.98,21.1-24.92l1.83-.29-.31-1.83c-.15-.88-.23-1.76-.23-2.62,0-8.45,6.82-15.32,15.19-15.32,3.6,0,7.08,1.29,9.81,3.63l1.88,1.61,1-2.26c5.08-11.52,11.15-21.86,29.4-21.86,22.21,0,32.15,17.57,32.15,34.99,0,.75-.03,1.49-.08,2.22l-.1,1.6,1.57,.32c11.59,2.38,20.01,12.78,20.01,24.73,0,13.92-11.23,25.24-25.03,25.24Z"/>
      <polygon class="cls-5" points="1412.91 394.78 1406.4 388.28 1399.89 394.78 1393.39 388.28 1386.88 394.78 1380.37 388.28 1372.06 396.59 1375.4 399.93 1380.37 394.95 1386.88 401.46 1393.39 394.95 1399.89 401.46 1406.4 394.95 1412.91 401.46 1421.08 393.29 1417.74 389.95 1412.91 394.78"/>
      <g>
        <path class="cls-7" d="M1445.05,321.22c.05-.77,.08-1.56,.08-2.35,0-18.91-10.92-36.83-33.98-36.83-19.02,0-25.79,10.95-31.08,22.95-2.96-2.54-6.81-4.07-11.01-4.07-9.4,0-17.03,7.68-17.03,17.15,0,1,.09,1.98,.25,2.93-12.83,2.04-22.64,13.23-22.64,26.74,0,14.96,12.03,27.08,26.87,27.08h83.14c14.84,0,26.87-12.12,26.87-27.08,0-13.09-9.22-24.01-21.48-26.53Z"/>
        <path class="cls-2" d="M1445.05,321.22c.05-.77,.08-1.56,.08-2.35,0-18.91-10.92-36.83-33.98-36.83-19.02,0-25.79,10.95-31.08,22.95-2.96-2.54-6.81-4.07-11.01-4.07-9.4,0-17.03,7.68-17.03,17.15,0,1,.09,1.98,.25,2.93-12.83,2.04-22.64,13.23-22.64,26.74,0,14.96,12.03,27.08,26.87,27.08h83.14c14.84,0,26.87-12.12,26.87-27.08,0-13.09-9.22-24.01-21.48-26.53Zm-5.39,48.1h-83.14c-11.78,0-21.36-9.68-21.36-21.57,0-10.68,7.57-19.64,18-21.3,1.45-.23,2.75-1.03,3.61-2.23,.86-1.2,1.2-2.69,.95-4.14-.12-.68-.17-1.33-.17-1.99,0-6.42,5.17-11.65,11.52-11.65,2.72,0,5.36,.97,7.42,2.74,1.01,.86,2.28,1.33,3.58,1.33,.41,0,.82-.05,1.22-.14,1.7-.39,3.11-1.55,3.82-3.15,5.62-12.76,11.44-19.67,26.04-19.67,21.02,0,28.48,16.87,28.48,31.32,0,.62-.02,1.29-.07,1.98-.18,2.74,1.69,5.2,4.38,5.76,9.9,2.03,17.08,10.92,17.08,21.14,0,11.9-9.58,21.57-21.36,21.57Z"/>
      </g>
      <path class="cls-5" d="M1445.72,319.78c0-.3,.01-.61,.01-.91,0-19.24-11.07-38.66-35.82-38.66-19.22,0-26.72,10.97-31.81,21.95-3.04-1.99-6.61-3.06-10.27-3.06-10.4,0-18.86,8.52-18.86,18.99,0,.48,.02,.96,.06,1.45-13.11,2.91-22.45,14.5-22.45,28.21,0,15.94,12.88,28.91,28.7,28.91h83.14c15.83,0,28.7-12.97,28.7-28.91,0-13.15-8.91-24.66-21.41-27.96Zm-7.29,53.21h-83.14c-13.8,0-25.03-11.32-25.03-25.24,0-12.5,8.87-22.98,21.1-24.92l1.83-.29-.31-1.83c-.15-.88-.23-1.76-.23-2.62,0-8.45,6.82-15.32,15.19-15.32,3.6,0,7.08,1.29,9.81,3.63l1.88,1.61,1-2.26c5.08-11.52,11.15-21.86,29.4-21.86,22.21,0,32.15,17.57,32.15,34.99,0,.75-.03,1.49-.08,2.22l-.1,1.6,1.57,.32c11.59,2.38,20.01,12.78,20.01,24.73,0,13.92-11.23,25.24-25.03,25.24Z"/>
      <path class="cls-5" d="M694.65,338.57c-13.96,0-27.82,1.76-41.2,5.23l1.81,6.98c12.79-3.32,26.04-5,39.39-5,86.24,0,156.4,70.16,156.4,156.4,0,33.39-10.37,65.25-30,92.13l5.82,4.25c20.53-28.12,31.39-61.45,31.39-96.38,0-90.21-73.4-163.61-163.61-163.61Z"/>
      <g>
        <path class="cls-5" d="M1616.57,327.69l2.06,6.91c4.61-1.37,9.32-2.57,14.01-3.55l-1.48-7.06c-4.89,1.02-9.8,2.27-14.59,3.7Z"/>
        <path class="cls-5" d="M1539.84,373.54l5.1,5.1c3.39-3.4,6.97-6.7,10.63-9.8l-4.67-5.5c-3.81,3.23-7.53,6.66-11.06,10.2Z"/>
        <path class="cls-5" d="M1562.77,354.08l4.2,5.87c3.92-2.81,7.98-5.47,12.09-7.93l-3.7-6.19c-4.28,2.56-8.51,5.33-12.59,8.25Z"/>
        <path class="cls-5" d="M1588.57,338.64l3.18,6.47c4.3-2.11,8.75-4.06,13.22-5.82l-2.63-6.71c-4.66,1.82-9.29,3.86-13.77,6.06Z"/>
        <path class="cls-5" d="M1487.98,479.82l7.15,.88c.58-4.76,1.38-9.56,2.35-14.26l-7.06-1.46c-1.01,4.89-1.84,9.89-2.44,14.85Z"/>
        <path class="cls-5" d="M1505.01,422.34l6.48,3.16c2.1-4.3,4.42-8.58,6.88-12.71l-6.19-3.7c-2.57,4.3-4.98,8.76-7.17,13.24Z"/>
        <path class="cls-5" d="M1494.1,450.37l6.91,2.05c1.37-4.62,2.94-9.22,4.68-13.67l-6.72-2.62c-1.81,4.64-3.45,9.44-4.88,14.24Z"/>
        <path class="cls-5" d="M1520.41,396.5l5.87,4.19c2.78-3.89,5.77-7.73,8.88-11.41l-5.51-4.65c-3.24,3.83-6.35,7.83-9.24,11.88Z"/>
        <path class="cls-5" d="M1758.07,351.87c4.12,2.46,8.19,5.12,12.1,7.91l4.19-5.87c-4.07-2.9-8.31-5.67-12.59-8.23l-3.7,6.19Z"/>
        <path class="cls-5" d="M1781.58,368.66c3.67,3.11,7.25,6.4,10.64,9.78l5.1-5.1c-3.53-3.52-7.26-6.95-11.08-10.19l-4.66,5.51Z"/>
        <path class="cls-5" d="M1802.02,389.07c3.09,3.64,6.09,7.48,8.9,11.39l5.86-4.2c-2.92-4.07-6.03-8.06-9.26-11.86l-5.5,4.67Z"/>
        <path class="cls-5" d="M1839.81,466.14c.98,4.68,1.78,9.47,2.38,14.26l7.15-.89c-.62-4.98-1.45-9.98-2.48-14.84l-7.06,1.48Z"/>
        <path class="cls-5" d="M1675.75,327.47c4.82,.19,9.67,.58,14.41,1.17l.88-7.15c-4.93-.61-9.98-1.01-15-1.21l-.29,7.2Z"/>
        <path class="cls-5" d="M1732.11,339.19c4.46,1.74,8.92,3.69,13.25,5.8l3.16-6.48c-4.5-2.2-9.14-4.23-13.79-6.04l-2.62,6.72Z"/>
        <path class="cls-5" d="M1646,321.52l.89,7.15c4.75-.59,9.6-.99,14.41-1.19l-.3-7.2c-5.01,.21-10.05,.63-14.99,1.24Z"/>
        <path class="cls-5" d="M1704.42,330.99c4.71,.98,9.43,2.17,14.02,3.52l2.05-6.91c-4.78-1.42-9.69-2.65-14.6-3.67l-1.46,7.06Z"/>
      </g>
      <path class="cls-6" d="M1671.64,462.38c-2.46,.03-4.55,2.03-4.55,4.62v27.43l-20.34-5.36-2.85-7.66c-.35-.94-1.15-1.64-2.13-1.87-1.86-.43-3.65,.99-3.65,2.91v10.81c0,3.75,2.53,7.04,6.16,8l60.67,16.08v-.02c.48,.12,.96,.18,1.45,.18,3.43,0,6.21-2.78,6.21-6.21h0c0-2.98-2.11-5.53-5.04-6.09l-20.67-5.53-10.81-34.08c-.5-1.56-1.79-2.75-3.39-3.11-.36-.08-.72-.12-1.07-.11Zm-29.38,67.55c-2.28,0-4.14,1.85-4.14,4.14s1.85,4.14,4.14,4.14h66.21c2.28,0,4.14-1.85,4.14-4.14s-1.85-4.14-4.14-4.14h-66.21Z"/>
      <path class="cls-6" d="M196.13,461.33c-.37,.01-.74,.07-1.11,.18-2.63,.8-3.84,3.84-2.47,6.22l13.88,24.21-21.08,5.56-6.14-5.16c-.84-.71-1.98-.94-3.03-.62-2.02,.6-2.94,2.95-1.88,4.77l5.33,9.1c1.88,3.2,5.65,4.77,9.25,3.82l60.93-16.05s.02,0,.02,0c2.97-.52,5.13-3.1,5.13-6.11,0-3.43-2.78-6.21-6.21-6.21-.54,0-1.08,.07-1.6,.21h0s-21.64,5.69-21.64,5.69l-26.35-24.46c-.83-.78-1.93-1.17-3.04-1.14Zm-17.3,61.08c-2.28,0-4.14,1.85-4.14,4.14s1.85,4.14,4.14,4.14h66.21c2.28,0,4.14-1.85,4.14-4.14s-1.85-4.14-4.14-4.14h-66.21Z"/>
      <path class="cls-6" d="M668.96,457.39c-.36-.09-.74-.13-1.12-.12-2.75,.08-4.71,2.7-4.01,5.36l7.07,26.99-21.8-.14-4.58-6.59c-.63-.9-1.67-1.43-2.76-1.39-2.11,.06-3.61,2.08-3.06,4.11l2.77,10.18c.98,3.58,4.21,6.08,7.93,6.11l63.01,.43s.02,0,.03,0c3,.27,5.76-1.65,6.55-4.56,.9-3.31-1.06-6.72-4.37-7.61-.52-.14-1.06-.21-1.6-.22h0s-22.38-.17-22.38-.17l-19.04-30.49c-.6-.97-1.56-1.64-2.64-1.89Zm-24.25,65.02c-2.28,0-4.14,1.85-4.14,4.14s1.85,4.14,4.14,4.14h66.21c2.28,0,4.14-1.85,4.14-4.14s-1.85-4.14-4.14-4.14h-66.21Z"/>
      <path class="cls-6" d="M1166.52,457.39c-.36-.09-.74-.13-1.12-.12-2.75,.08-4.71,2.7-4.01,5.36l7.07,26.99-21.8-.14-4.58-6.59c-.63-.9-1.67-1.43-2.76-1.39-2.11,.06-3.61,2.08-3.06,4.11l2.77,10.18c.98,3.58,4.21,6.08,7.93,6.11l63.01,.43s.02,0,.03,0c3,.27,5.76-1.65,6.55-4.56,.9-3.31-1.06-6.72-4.37-7.61-.52-.14-1.06-.21-1.6-.22h0s-22.38-.17-22.38-.17l-19.04-30.49c-.6-.97-1.56-1.64-2.64-1.89Zm-24.25,65.02c-2.28,0-4.14,1.85-4.14,4.14s1.85,4.14,4.14,4.14h66.21c2.28,0,4.14-1.85,4.14-4.14s-1.85-4.14-4.14-4.14h-66.21Z"/>
    </g>
    <text class="cls-3" transform="translate(820.42 760.48)"><tspan x="0" y="0">Oneway Trip</tspan></text>
  </g>
</svg>