<?xml version="1.0" encoding="UTF-8"?>
<svg id="Layer_1" data-name="Layer 1" xmlns="http://www.w3.org/2000/svg" viewBox="0 0 1920 1080">
  <defs>
    <style>
      .cls-1 {
        fill: none;
        stroke: #5f0f33;
        stroke-linecap: round;
        stroke-miterlimit: 10;
        stroke-width: 6px;
      }

      .cls-2, .cls-3 {
        fill: #fff;
      }

      .cls-4 {
        fill: #ddd;
      }

      .cls-5 {
        fill: #313231;
      }

      .cls-6, .cls-7 {
        fill: #5f0f33;
      }

      .cls-3 {
        font-family: Poppins-SemiBold, Poppins;
        font-size: 51.72px;
        font-weight: 600;
      }

      .cls-7 {
        fill-rule: evenodd;
      }
    </style>
  </defs>
  <rect class="cls-6" x="825" y="747" width="333" height="84" rx="17.82" ry="17.82"/>
  <g>
    <g>
      <path class="cls-1" d="M272.15,705.51v42.44c0,69.07,55.99,125.05,125.05,125.05H1640.22c35.95,0,68.36-15.17,91.17-39.46"/>
      <polygon class="cls-6" points="1738.66 859.79 1726.34 839.03 1702.85 833.48 1751.94 804.19 1738.66 859.79"/>
    </g>
    <g>
      <path class="cls-4" d="M308.76,494.46c1.7,1.69,3.34,3.43,4.92,5.24l10.91-10.91-5.08-5.08-10.75,10.75Z"/>
      <path class="cls-4" d="M323.81,513.45c1.3,2.11,2.54,4.26,3.7,6.47l31.13-31.13-5.08-5.08-29.75,29.75Z"/>
      <path class="cls-4" d="M334.35,535.94c.86,2.58,1.62,5.2,2.3,7.86l55.02-55.02-5.08-5.08-52.24,52.24Z"/>
      <path class="cls-4" d="M339.83,563.96c.05,.74,.12,1.48,.15,2.23,.12,2.64,.07,5.24-.05,7.84l85.24-85.24-5.08-5.08-80.26,80.26Z"/>
      <path class="cls-4" d="M333.82,601.94c-3.4,8.56-8.05,16.6-13.73,23.89l137.05-137.05-5.08-5.08-118.24,118.24Z"/>
      <rect class="cls-4" x="296.66" y="562.38" width="225.52" height="7.19" transform="translate(-280.29 455.28) rotate(-45)"/>
      <rect class="cls-4" x="329.58" y="562.38" width="225.52" height="7.19" transform="translate(-270.65 478.55) rotate(-45)"/>
      <path class="cls-4" d="M398.76,648.25l131.76-131.76c1.57-5.22,3.35-10.4,5.35-15.51l-142.2,142.2,5.08,5.08Z"/>
      <path class="cls-4" d="M430.23,648.25l93.22-93.22c.23-3.74,.58-7.48,1.09-11.25l-99.39,99.39,5.08,5.08Z"/>
      <path class="cls-4" d="M458.28,643.17l5.08,5.08,61.26-61.26c-.35-3.1-.64-6.19-.87-9.29l-65.47,65.47Z"/>
      <path class="cls-4" d="M491.42,643.17l5.08,5.08,32.95-32.95c-.65-2.78-1.26-5.56-1.8-8.36l-36.23,36.23Z"/>
      <path class="cls-4" d="M525.35,643.17l5.08,5.08,6.83-6.83c-.92-2.49-1.81-4.99-2.64-7.52l-9.27,9.27Z"/>
      <path class="cls-4" d="M900.57,499.11c.91,2.51,1.77,5.04,2.58,7.58l17.91-17.91-5.08-5.08-15.41,15.41Z"/>
      <path class="cls-4" d="M908.35,526.06c.62,2.81,1.2,5.62,1.72,8.45l45.73-45.73-5.08-5.08-42.36,42.36Z"/>
      <path class="cls-4" d="M912.78,553.18c.33,3.11,.61,6.22,.83,9.33l73.73-73.73-5.08-5.08-69.48,69.48Z"/>
      <path class="cls-4" d="M913.75,585.34c-.27,3.77-.64,7.55-1.19,11.35l107.91-107.91-5.08-5.08-101.64,101.64Z"/>
      <path class="cls-4" d="M905.44,626.79c-1.78,5.46-3.79,10.87-6.03,16.19l154.2-154.2-5.08-5.08-143.09,143.09Z"/>
      <rect class="cls-4" x="891.71" y="562.38" width="225.52" height="7.19" transform="translate(-106 876.04) rotate(-45)"/>
      <path class="cls-4" d="M989.6,619.06l84.27-84.27c1.37-5.25,3.12-10.38,5.2-15.37l-96.07,96.07c2.31,.97,4.58,2.12,6.6,3.56Z"/>
      <path class="cls-4" d="M1070.34,561.31l-65.39,65.39c3.3,.03,6.58,.14,9.86,.3l55.89-55.89c-.1-1.34-.21-2.67-.27-4.02-.09-1.94-.1-3.86-.09-5.78Z"/>
      <path class="cls-4" d="M1035.96,628.81c.66,.08,1.32,.14,1.98,.22,3.13-.84,6.38-1.36,9.67-1.71l28.01-28.01c-.76-2.68-1.43-5.4-2.03-8.14l-37.63,37.63Z"/>
      <path class="cls-4" d="M1069.92,627.99c2.94,.43,5.82,.94,8.6,1.56l6.31-6.31c-1.13-2.28-2.22-4.59-3.22-6.94l-11.69,11.69Z"/>
      <path class="cls-4" d="M1302.82,494.51c1.38,2.02,2.72,4.07,3.99,6.17l11.9-11.9-5.08-5.08-10.81,10.81Z"/>
      <path class="cls-4" d="M1314.69,515.77c1.06,2.36,2.06,4.74,2.99,7.17l34.16-34.16-5.08-5.08-32.07,32.07Z"/>
      <path class="cls-4" d="M1322.77,539.23c.68,2.75,1.31,5.52,1.83,8.33l58.78-58.79-5.08-5.08-55.53,55.53Z"/>
      <path class="cls-4" d="M1326.87,569.86c.07,3.51,0,6.99-.27,10.43l91.51-91.51-5.08-5.08-86.16,86.16Z"/>
      <path class="cls-4" d="M1320.16,609.72c-2.42,6.64-5.45,13.04-9,19.16l140.09-140.09-5.08-5.08-126.02,126.02Z"/>
      <rect class="cls-4" x="1289.35" y="562.38" width="225.52" height="7.19" transform="translate(10.46 1157.21) rotate(-45)"/>
      <rect class="cls-4" x="1321.3" y="562.38" width="225.52" height="7.19" transform="translate(19.82 1179.8) rotate(-45)"/>
      <path class="cls-4" d="M1391.19,648.25l127.88-127.88c1.84-5.61,4-11.15,6.42-16.58l-139.38,139.38,5.08,5.08Z"/>
      <path class="cls-4" d="M1424.33,648.25l87.31-87.31c.1-3.64,.41-7.31,.84-11l-93.23,93.23,5.08,5.08Z"/>
      <path class="cls-4" d="M1452.39,643.17l5.08,5.08,56.47-56.47c-.45-3-.83-6-1.15-9.01l-60.4,60.4Z"/>
      <path class="cls-4" d="M1490.7,637.2c1.41,.07,2.83,.24,4.28,.5,1.46,.26,2.89,.65,4.3,1.09l8.37-8.37c-.51-2.89-1-5.8-1.46-8.7l-15.48,15.48Z"/>
      <path class="cls-4" d="M1863.97,528.66c.65,2.79,1.23,5.59,1.76,8.41"/>
      <path class="cls-4" d="M1867.69,591.47c-.67,4.26-1.56,8.52-2.62,12.78"/>
      <path class="cls-4" d="M1850.1,643.1s-.03,.06-.04,.09l5.06,5.06"/>
      <path class="cls-5" d="M1515.68,563.07h-182.81c-1.91-72.09-61.15-130.15-133.69-130.15s-131.79,58.06-133.69,130.15h-155.86v3.59c0,105.01-85.43,190.44-190.44,190.44s-190.44-85.43-190.44-190.44v-3.59h-186.85c-1.9-55.01-47.25-99.18-102.71-99.18s-100.81,44.17-102.71,99.18h-34.43c1.17,2.21,1.48,4.86,.73,7.19h40.83v-3.59c0-52.71,42.88-95.59,95.59-95.59s95.59,42.88,95.59,95.59v3.59h186.82c1.92,107.32,89.82,194.03,197.59,194.03s195.67-86.71,197.59-194.03h155.84v-3.59c0-69.78,56.77-126.55,126.56-126.55s126.55,56.77,126.55,126.55v3.59h182.8c.18,9.3,1.11,18.4,2.65,27.31,.63-.06,1.24-.1,1.85-.1,.26,0,.54,.03,.81,.04,.94-.43,1.9-.81,2.87-1.13,.48-.16,.99-.26,1.49-.37-1.63-9.55-2.52-19.34-2.52-29.35v-3.59Z"/>
      <path class="cls-5" d="M1872.73,563.07h-8.51v3.59c0,96.09-78.18,174.27-174.27,174.27-49.76,0-94.69-20.98-126.47-54.53-1.19,.2-2.42,.33-3.74,.33-.39,0-.76-.04-1.14-.06-.22,.01-.44,.05-.66,.06-1.4,.01-2.75-.09-4.08-.25,33.26,37.76,81.92,61.64,136.09,61.64,98.85,0,179.49-79.46,181.42-177.86h1.58c-.6-2.44-.64-4.86-.22-7.19Z"/>
      <g>
        <path class="cls-5" d="M189.2,656.94c4.28,2.34,8.77,4.38,13.33,6.08l2.51-6.73c-4.25-1.58-8.42-3.48-12.4-5.65l-3.44,6.31Z"/>
        <path class="cls-5" d="M148.24,616.1c2.34,4.26,5.02,8.4,7.95,12.3l5.74-4.32c-2.73-3.63-5.22-7.48-7.39-11.44l-6.3,3.46Z"/>
        <path class="cls-5" d="M165.8,639.45c3.45,3.44,7.18,6.66,11.08,9.58l4.3-5.76c-3.63-2.71-7.1-5.71-10.31-8.91l-5.07,5.09Z"/>
        <path class="cls-5" d="M216.61,667.12c4.75,1.02,9.63,1.72,14.5,2.06l.5-7.17c-4.54-.32-9.07-.96-13.48-1.91l-1.52,7.02Z"/>
        <path class="cls-5" d="M144.98,587.22l-7.02,1.54c1.05,4.77,2.45,9.5,4.16,14.05l6.73-2.53c-1.59-4.23-2.89-8.63-3.87-13.06Z"/>
        <path class="cls-5" d="M327.91,600.15l6.73,2.52c1.71-4.57,3.1-9.3,4.14-14.06l-7.02-1.53c-.96,4.43-2.26,8.83-3.85,13.07Z"/>
        <path class="cls-5" d="M245.23,662l.51,7.17c4.87-.35,9.75-1.05,14.5-2.08l-1.52-7.02c-4.42,.96-8.95,1.61-13.48,1.93Z"/>
        <path class="cls-5" d="M314.84,623.99l5.75,4.31c2.93-3.91,5.6-8.05,7.94-12.31l-6.3-3.46c-2.17,3.97-4.66,7.82-7.39,11.45Z"/>
        <path class="cls-5" d="M295.62,643.2l4.31,5.75c3.89-2.91,7.61-6.14,11.06-9.59l-5.08-5.08c-3.21,3.21-6.68,6.21-10.3,8.92Z"/>
        <path class="cls-5" d="M271.79,656.24l2.51,6.73c4.56-1.7,9.04-3.75,13.31-6.09l-3.45-6.31c-3.98,2.18-8.14,4.08-12.38,5.66Z"/>
      </g>
      <g>
        <path class="cls-5" d="M589.37,416.92l4.69,5.45c3.58-3.09,7.33-6.08,11.12-8.89l-4.27-5.78c-3.94,2.92-7.82,6.02-11.54,9.22Z"/>
        <path class="cls-5" d="M569.13,437.11c2.35-.3,4.75-.25,7.01,.52,.56,.19,1.05,.45,1.56,.69,1.94-2.12,3.9-4.23,5.93-6.26l-5.09-5.07c-3.25,3.26-6.41,6.67-9.41,10.12Z"/>
        <path class="cls-5" d="M527.39,515.58l6.94,1.85c1.22-4.57,2.63-9.14,4.18-13.6l-6.78-2.37c-1.62,4.63-3.08,9.38-4.35,14.12Z"/>
        <path class="cls-5" d="M521.94,544.6l7.14,.79c.52-4.69,1.23-9.43,2.1-14.08l-7.06-1.33c-.91,4.82-1.64,9.74-2.18,14.61Z"/>
        <path class="cls-5" d="M613.1,399.36l3.83,6.08c4-2.52,8.15-4.92,12.32-7.13l-3.37-6.35c-4.33,2.29-8.63,4.79-12.78,7.4Z"/>
        <path class="cls-5" d="M667.03,375.77l1.86,6.94c4.56-1.22,9.23-2.29,13.88-3.17l-1.33-7.06c-4.82,.91-9.67,2.01-14.4,3.28Z"/>
        <path class="cls-5" d="M887.56,479.25c1.87,3.61,3.65,7.29,5.28,11l6.58-2.88c-1.16-2.65-2.41-5.28-3.69-7.88-2.73,0-5.45-.08-8.17-.23Z"/>
        <path class="cls-5" d="M898.06,503.48c1.57,4.47,2.99,9.04,4.21,13.6l6.94-1.87c-1.27-4.73-2.74-9.48-4.37-14.11l-6.78,2.38Z"/>
        <path class="cls-5" d="M905.44,530.96c.88,4.65,1.59,9.38,2.12,14.07l7.14-.81c-.55-4.87-1.29-9.78-2.21-14.61l-7.06,1.34Z"/>
        <path class="cls-5" d="M639.17,385.54l2.88,6.58c4.33-1.89,8.78-3.65,13.24-5.21l-2.38-6.78c-4.62,1.62-9.25,3.44-13.74,5.41Z"/>
        <path class="cls-5" d="M696.05,370.28l.8,7.14c4.67-.53,9.45-.88,14.2-1.06l-.27-7.18c-4.92,.18-9.88,.55-14.73,1.1Z"/>
        <path class="cls-5" d="M725.29,376.35c4.72,.17,9.49,.52,14.2,1.04l.78-7.14c-4.88-.53-9.84-.89-14.73-1.07l-.26,7.18Z"/>
        <path class="cls-5" d="M753.57,379.48c4.63,.87,9.3,1.92,13.88,3.14l1.85-6.95c-4.75-1.26-9.6-2.36-14.41-3.26l-1.32,7.07Z"/>
      </g>
      <g>
        <path class="cls-5" d="M1133.72,683.78c4.36,2.41,8.91,4.6,13.52,6.51l2.75-6.64c-4.36-1.8-8.66-3.88-12.79-6.16l-3.47,6.29Z"/>
        <path class="cls-5" d="M1161.41,695.23c4.8,1.38,9.72,2.49,14.63,3.32l1.19-7.09c-4.65-.78-9.31-1.84-13.85-3.13l-1.98,6.91Z"/>
        <path class="cls-5" d="M1074.79,617.96c1.25,3,2.65,5.95,4.13,8.87,2.6,.22,5.13,.86,7.57,1.75l1.11-.62c-2.29-4.13-4.37-8.42-6.18-12.77l-6.63,2.76Z"/>
        <path class="cls-5" d="M1066.48,589.17c.84,4.92,1.96,9.85,3.34,14.63l6.91-1.99c-1.31-4.53-2.37-9.18-3.16-13.84l-7.09,1.2Z"/>
        <path class="cls-5" d="M1111.64,663.82c.27,1.64,.41,3.28,.36,4.92,2.92,2.47,5.92,4.86,9.02,7.06l4.16-5.86c-3.85-2.73-7.58-5.71-11.1-8.85l-2.44,2.73Z"/>
        <path class="cls-5" d="M1191.34,693.02l-.39,7.17c2.45,.13,4.91,.2,7.39,.2s5.08-.07,7.6-.21l-.4-7.17c-4.7,.26-9.5,.27-14.2,.01Z"/>
        <path class="cls-5" d="M1292.75,650.93l5.36,4.79c3.32-3.71,6.46-7.66,9.35-11.73l-5.86-4.16c-2.73,3.85-5.71,7.59-8.85,11.1Z"/>
        <path class="cls-5" d="M1219.64,691.43l1.2,7.09c4.92-.84,9.85-1.96,14.63-3.34l-1.99-6.91c-4.53,1.31-9.18,2.37-13.84,3.16Z"/>
        <path class="cls-5" d="M1320,601.61l6.91,1.98c1.37-4.79,2.49-9.71,3.32-14.63l-7.09-1.19c-.78,4.65-1.84,9.31-3.13,13.84Z"/>
        <path class="cls-5" d="M1309.17,627.8l6.29,3.47c2.41-4.36,4.6-8.91,6.51-13.52l-6.64-2.75c-1.8,4.36-3.88,8.66-6.16,12.79Z"/>
        <path class="cls-5" d="M1246.87,683.57l2.76,6.64c4.58-1.91,9.12-4.1,13.5-6.53l-3.49-6.28c-4.14,2.29-8.43,4.37-12.77,6.17Z"/>
        <path class="cls-5" d="M1271.64,669.83l4.17,5.85c4.06-2.89,8-6.04,11.71-9.36l-4.79-5.35c-3.51,3.14-7.24,6.13-11.08,8.86Z"/>
      </g>
      <path class="cls-5" d="M239.19,633.09c-36.38,0-65.98-29.6-65.98-65.98,0-16.65,6.22-32.55,17.51-44.77l-5.28-4.88c-12.52,13.55-19.42,31.18-19.42,49.64,0,40.34,32.82,73.16,73.16,73.16,12.69,0,25.19-3.3,36.15-9.54l-3.55-6.25c-9.88,5.63-21.15,8.6-32.59,8.6Z"/>
      <path class="cls-5" d="M1198.34,667.54c-55.63,0-100.89-45.26-100.89-100.88,0-14.73,3.11-28.93,9.23-42.21l-6.53-3.01c-6.56,14.23-9.89,29.44-9.89,45.22,0,59.59,48.48,108.07,108.07,108.07,29.59,0,57.2-11.73,77.76-33.02l-5.17-4.99c-19.19,19.88-44.97,30.82-72.59,30.82Z"/>
      <path class="cls-5" d="M1539.34,566.66c0,9.82,.95,19.49,2.79,28.92,2.45-.33,4.97-.14,7.46,.68-2.02-9.63-3.07-19.53-3.07-29.6,0-78.62,63.96-142.59,142.59-142.59,24.89,0,49.38,6.51,70.83,18.81l3.57-6.23c-22.54-12.93-48.27-19.76-74.4-19.76-82.58,0-149.77,67.19-149.77,149.77Z"/>
      <polygon class="cls-5" points="444.45 442.77 434.54 432.87 424.64 442.77 414.74 432.87 404.84 442.77 394.93 432.87 382.29 445.52 387.37 450.6 394.93 443.03 404.84 452.93 414.74 443.03 424.64 452.93 434.54 443.03 444.45 452.93 456.89 440.49 451.81 435.41 444.45 442.77"/>
      <polygon class="cls-5" points="1008.47 470.15 1001.99 463.66 995.51 470.15 989.02 463.66 982.54 470.15 976.05 463.66 967.77 471.95 971.1 475.27 976.05 470.32 982.54 476.8 989.02 470.32 995.51 476.8 1001.99 470.32 1008.47 476.8 1016.62 468.65 1013.3 465.33 1008.47 470.15"/>
      <g>
        <path class="cls-7" d="M478.46,359.63c.05-.77,.08-1.55,.08-2.34,0-18.84-10.89-36.7-33.87-36.7-18.95,0-25.7,10.92-30.98,22.88-2.95-2.53-6.79-4.05-10.97-4.05-9.37,0-16.97,7.65-16.97,17.1,0,1,.09,1.97,.25,2.92-12.79,2.03-22.57,13.19-22.57,26.65,0,14.91,11.99,26.98,26.78,26.98h82.86c14.79,0,26.78-12.08,26.78-26.98,0-13.05-9.19-23.93-21.4-26.44Z"/>
        <path class="cls-2" d="M478.46,359.63c.05-.77,.08-1.55,.08-2.34,0-18.84-10.89-36.7-33.87-36.7-18.96,0-25.7,10.92-30.98,22.88-2.95-2.53-6.79-4.05-10.97-4.05-9.37,0-16.97,7.65-16.97,17.1,0,1,.09,1.97,.25,2.92-12.79,2.03-22.57,13.19-22.57,26.65,0,14.91,11.99,26.99,26.78,26.99h82.86c14.79,0,26.78-12.08,26.78-26.99,0-13.05-9.19-23.93-21.4-26.44Zm-5.37,47.94h-82.86c-11.74,0-21.29-9.64-21.29-21.5,0-10.65,7.55-19.57,17.94-21.23,1.45-.23,2.74-1.03,3.6-2.22,.85-1.19,1.19-2.68,.95-4.12-.12-.68-.17-1.33-.17-1.99,0-6.4,5.15-11.61,11.49-11.61,2.72,0,5.34,.97,7.4,2.73,1,.86,2.27,1.32,3.57,1.32,.4,0,.81-.04,1.22-.14,1.69-.38,3.1-1.55,3.8-3.14,5.6-12.71,11.4-19.6,25.96-19.6,20.95,0,28.38,16.82,28.38,31.22,0,.62-.02,1.28-.07,1.97-.18,2.73,1.68,5.18,4.37,5.74,9.86,2.03,17.02,10.89,17.02,21.07,0,11.86-9.55,21.5-21.29,21.5Z"/>
      </g>
      <path class="cls-5" d="M479.12,358.2c0-.3,.01-.6,.01-.91,0-19.18-11.04-38.53-35.7-38.53-19.15,0-26.63,10.93-31.7,21.88-3.03-1.98-6.59-3.05-10.24-3.05-10.37,0-18.8,8.49-18.8,18.92,0,.48,.02,.96,.06,1.44-13.07,2.9-22.37,14.46-22.37,28.12,0,15.89,12.83,28.81,28.61,28.81h82.87c15.77,0,28.61-12.93,28.61-28.81,0-13.1-8.88-24.58-21.34-27.87Zm-7.27,53.03h-82.87c-13.76,0-24.95-11.29-24.95-25.16,0-12.46,8.84-22.9,21.03-24.84l1.83-.29-.31-1.82c-.15-.87-.23-1.75-.23-2.61,0-8.42,6.79-15.27,15.14-15.27,3.59,0,7.06,1.28,9.78,3.61l1.87,1.6,.99-2.25c5.06-11.48,11.11-21.79,29.3-21.79,22.13,0,32.04,17.52,32.04,34.87,0,.74-.03,1.49-.08,2.22l-.1,1.59,1.56,.32c11.56,2.38,19.94,12.74,19.94,24.65,0,13.87-11.19,25.16-24.95,25.16Z"/>
      <g>
        <path class="cls-7" d="M1040.52,396.83c.05-.77,.08-1.55,.08-2.34,0-18.84-10.89-36.7-33.87-36.7-18.95,0-25.7,10.92-30.98,22.88-2.95-2.53-6.79-4.05-10.97-4.05-9.37,0-16.97,7.65-16.97,17.1,0,1,.09,1.97,.25,2.92-12.79,2.03-22.57,13.19-22.57,26.65,0,14.91,11.99,26.98,26.78,26.98h82.86c14.79,0,26.78-12.08,26.78-26.98,0-13.05-9.19-23.93-21.4-26.44Z"/>
        <path class="cls-2" d="M1040.52,396.83c.05-.77,.08-1.55,.08-2.34,0-18.84-10.89-36.7-33.87-36.7-18.96,0-25.7,10.92-30.98,22.88-2.95-2.53-6.79-4.05-10.97-4.05-9.37,0-16.97,7.65-16.97,17.1,0,1,.09,1.97,.25,2.92-12.79,2.03-22.57,13.19-22.57,26.65,0,14.91,11.99,26.99,26.78,26.99h82.86c14.79,0,26.78-12.08,26.78-26.99,0-13.05-9.19-23.93-21.4-26.44Zm-5.37,47.94h-82.86c-11.74,0-21.29-9.64-21.29-21.5,0-10.65,7.55-19.57,17.94-21.23,1.45-.23,2.74-1.03,3.6-2.22,.85-1.19,1.19-2.68,.95-4.12-.12-.68-.17-1.33-.17-1.99,0-6.4,5.15-11.61,11.49-11.61,2.72,0,5.34,.97,7.4,2.73,1,.86,2.27,1.32,3.57,1.32,.4,0,.81-.04,1.22-.14,1.69-.38,3.1-1.55,3.8-3.14,5.6-12.71,11.4-19.6,25.96-19.6,20.95,0,28.38,16.82,28.38,31.22,0,.62-.02,1.28-.07,1.97-.18,2.73,1.68,5.18,4.37,5.74,9.86,2.03,17.02,10.89,17.02,21.07,0,11.86-9.55,21.5-21.29,21.5Z"/>
      </g>
      <path class="cls-5" d="M1041.18,395.4c0-.3,.01-.6,.01-.91,0-19.18-11.04-38.53-35.7-38.53-19.15,0-26.63,10.93-31.7,21.88-3.03-1.98-6.59-3.05-10.24-3.05-10.37,0-18.8,8.49-18.8,18.92,0,.48,.02,.96,.06,1.44-13.07,2.9-22.37,14.46-22.37,28.12,0,15.89,12.83,28.81,28.61,28.81h82.87c15.77,0,28.61-12.93,28.61-28.81,0-13.1-8.88-24.58-21.34-27.87Zm-7.27,53.03h-82.87c-13.76,0-24.95-11.29-24.95-25.16,0-12.46,8.84-22.9,21.03-24.84l1.83-.29-.31-1.82c-.15-.87-.23-1.75-.23-2.61,0-8.42,6.79-15.27,15.14-15.27,3.59,0,7.06,1.28,9.78,3.61l1.87,1.6,.99-2.25c5.06-11.48,11.11-21.79,29.3-21.79,22.13,0,32.04,17.52,32.04,34.87,0,.74-.03,1.49-.08,2.22l-.1,1.59,1.56,.32c11.56,2.38,19.94,12.74,19.94,24.65,0,13.87-11.19,25.16-24.95,25.16Z"/>
      <polygon class="cls-5" points="1434.2 459.62 1427.71 453.14 1421.23 459.62 1414.74 453.14 1408.26 459.62 1401.77 453.14 1393.49 461.42 1396.82 464.75 1401.77 459.79 1408.26 466.28 1414.74 459.79 1421.23 466.28 1427.71 459.79 1434.2 466.28 1442.34 458.13 1439.02 454.8 1434.2 459.62"/>
      <g>
        <path class="cls-7" d="M1466.24,386.3c.05-.77,.08-1.55,.08-2.34,0-18.84-10.89-36.7-33.87-36.7-18.95,0-25.7,10.92-30.98,22.88-2.95-2.53-6.79-4.05-10.97-4.05-9.37,0-16.97,7.65-16.97,17.1,0,1,.09,1.97,.25,2.92-12.79,2.03-22.57,13.19-22.57,26.65,0,14.91,11.99,26.98,26.78,26.98h82.86c14.79,0,26.78-12.08,26.78-26.98,0-13.05-9.19-23.93-21.4-26.44Z"/>
        <path class="cls-2" d="M1466.24,386.3c.05-.77,.08-1.55,.08-2.34,0-18.84-10.89-36.7-33.87-36.7-18.96,0-25.7,10.92-30.98,22.88-2.95-2.53-6.79-4.05-10.97-4.05-9.37,0-16.97,7.65-16.97,17.1,0,1,.09,1.97,.25,2.92-12.79,2.03-22.57,13.19-22.57,26.65,0,14.91,11.99,26.99,26.78,26.99h82.86c14.79,0,26.78-12.08,26.78-26.99,0-13.05-9.19-23.93-21.4-26.44Zm-5.37,47.94h-82.86c-11.74,0-21.29-9.64-21.29-21.5,0-10.65,7.55-19.57,17.94-21.23,1.45-.23,2.74-1.03,3.6-2.22,.85-1.19,1.19-2.68,.95-4.12-.12-.68-.17-1.33-.17-1.99,0-6.4,5.15-11.61,11.49-11.61,2.72,0,5.34,.97,7.4,2.73,1,.86,2.27,1.32,3.57,1.32,.4,0,.81-.04,1.22-.14,1.69-.38,3.1-1.55,3.8-3.14,5.6-12.71,11.4-19.6,25.96-19.6,20.95,0,28.38,16.82,28.38,31.22,0,.62-.02,1.28-.07,1.97-.18,2.73,1.68,5.18,4.37,5.74,9.86,2.03,17.02,10.89,17.02,21.07,0,11.86-9.55,21.5-21.29,21.5Z"/>
      </g>
      <path class="cls-5" d="M1466.9,384.87c0-.3,.01-.6,.01-.91,0-19.18-11.04-38.53-35.7-38.53-19.15,0-26.63,10.93-31.7,21.88-3.03-1.98-6.59-3.05-10.24-3.05-10.37,0-18.8,8.49-18.8,18.92,0,.48,.02,.96,.06,1.44-13.07,2.9-22.37,14.46-22.37,28.12,0,15.89,12.83,28.81,28.61,28.81h82.87c15.77,0,28.61-12.93,28.61-28.81,0-13.1-8.88-24.58-21.34-27.87Zm-7.27,53.03h-82.87c-13.76,0-24.95-11.29-24.95-25.16,0-12.46,8.84-22.9,21.03-24.84l1.83-.29-.31-1.82c-.15-.87-.23-1.75-.23-2.61,0-8.42,6.79-15.27,15.14-15.27,3.59,0,7.06,1.28,9.78,3.61l1.87,1.6,.99-2.25c5.06-11.48,11.11-21.79,29.3-21.79,22.13,0,32.04,17.52,32.04,34.87,0,.74-.03,1.49-.08,2.22l-.1,1.59,1.56,.32c11.56,2.38,19.94,12.74,19.94,24.65,0,13.87-11.19,25.16-24.95,25.16Z"/>
      <path class="cls-5" d="M718.35,403.6c-13.91,0-27.73,1.75-41.06,5.22l1.8,6.95c12.75-3.31,25.95-4.98,39.26-4.98,85.95,0,155.87,69.92,155.87,155.87,0,33.28-10.34,65.03-29.9,91.82l5.8,4.24c20.47-28.03,31.28-61.25,31.28-96.06,0-89.91-73.15-163.06-163.06-163.06Z"/>
      <g>
        <path class="cls-5" d="M1637.18,392.75l2.05,6.88c4.59-1.36,9.29-2.56,13.97-3.54l-1.47-7.03c-4.87,1.02-9.77,2.26-14.54,3.68Z"/>
        <path class="cls-5" d="M1560.71,438.45l5.08,5.08c3.38-3.39,6.95-6.67,10.59-9.77l-4.65-5.48c-3.79,3.22-7.5,6.64-11.02,10.17Z"/>
        <path class="cls-5" d="M1583.55,419.05l4.18,5.85c3.9-2.8,7.95-5.45,12.05-7.9l-3.68-6.17c-4.26,2.55-8.48,5.31-12.54,8.22Z"/>
        <path class="cls-5" d="M1609.27,403.67l3.17,6.45c4.28-2.1,8.72-4.05,13.18-5.8l-2.62-6.69c-4.64,1.82-9.26,3.85-13.72,6.04Z"/>
        <path class="cls-5" d="M1509.01,544.37l7.13,.87c.58-4.74,1.37-9.53,2.34-14.21l-7.04-1.46c-1.01,4.88-1.83,9.86-2.44,14.8Z"/>
        <path class="cls-5" d="M1525.99,487.08l6.46,3.15c2.09-4.29,4.4-8.55,6.86-12.66l-6.17-3.68c-2.56,4.29-4.96,8.73-7.14,13.2Z"/>
        <path class="cls-5" d="M1515.11,515.02l6.89,2.04c1.36-4.6,2.93-9.19,4.66-13.63l-6.7-2.61c-1.8,4.63-3.44,9.41-4.86,14.2Z"/>
        <path class="cls-5" d="M1541.34,461.33l5.85,4.18c2.77-3.87,5.75-7.7,8.85-11.37l-5.49-4.64c-3.23,3.82-6.33,7.8-9.21,11.84Z"/>
        <path class="cls-5" d="M1778.2,416.85c4.11,2.45,8.17,5.1,12.06,7.88l4.18-5.85c-4.06-2.89-8.28-5.65-12.55-8.2l-3.68,6.17Z"/>
        <path class="cls-5" d="M1801.63,433.59c3.66,3.09,7.23,6.38,10.6,9.75l5.08-5.08c-3.52-3.51-7.23-6.93-11.04-10.15l-4.65,5.49Z"/>
        <path class="cls-5" d="M1822.01,453.92c3.08,3.63,6.07,7.45,8.87,11.35l5.84-4.19c-2.91-4.06-6.01-8.04-9.23-11.82l-5.48,4.65Z"/>
        <path class="cls-5" d="M1859.67,530.74c.98,4.66,1.78,9.44,2.37,14.21l7.13-.89c-.62-4.97-1.45-9.94-2.47-14.79l-7.03,1.47Z"/>
        <path class="cls-5" d="M1696.16,392.53c4.81,.19,9.64,.58,14.36,1.16l.88-7.13c-4.92-.6-9.94-1.01-14.95-1.21l-.29,7.18Z"/>
        <path class="cls-5" d="M1752.33,404.21c4.45,1.73,8.89,3.68,13.2,5.78l3.15-6.46c-4.48-2.19-9.11-4.22-13.74-6.02l-2.61,6.7Z"/>
        <path class="cls-5" d="M1666.51,386.6l.88,7.13c4.73-.59,9.57-.99,14.36-1.19l-.3-7.18c-4.99,.21-10.01,.62-14.94,1.24Z"/>
        <path class="cls-5" d="M1724.73,396.04c4.7,.98,9.4,2.16,13.97,3.51l2.04-6.89c-4.76-1.41-9.66-2.64-14.55-3.66l-1.46,7.04Z"/>
      </g>
      <path class="cls-6" d="M1692.06,526.99c-2.45,.02-4.54,2.03-4.54,4.61v27.34l-20.28-5.34-2.84-7.64c-.35-.94-1.15-1.64-2.13-1.86-1.86-.42-3.63,.99-3.63,2.9v10.77c0,3.74,2.52,7.02,6.14,7.97l60.46,16.03v-.02c.47,.12,.96,.18,1.45,.18,3.42,0,6.19-2.77,6.19-6.19h0c0-2.97-2.11-5.51-5.02-6.07l-20.6-5.51-10.77-33.96c-.49-1.56-1.78-2.74-3.38-3.1-.36-.08-.72-.12-1.07-.11Zm-29.28,67.32c-2.28,0-4.12,1.85-4.12,4.12s1.85,4.12,4.12,4.12h65.99c2.28,0,4.12-1.85,4.12-4.12s-1.85-4.12-4.12-4.12h-65.99Z"/>
      <path class="cls-6" d="M221.49,525.94c-.37,.01-.74,.07-1.1,.18-2.62,.8-3.83,3.83-2.46,6.2l13.83,24.13-21.01,5.54-6.12-5.15c-.84-.71-1.97-.94-3.02-.62-2.01,.6-2.93,2.94-1.87,4.75l5.32,9.07c1.87,3.19,5.64,4.75,9.22,3.81l60.73-16s.02,0,.02,0c2.96-.52,5.11-3.09,5.12-6.09,0-3.42-2.77-6.19-6.19-6.19-.54,0-1.07,.07-1.59,.21h0s-21.57,5.67-21.57,5.67l-26.26-24.38c-.83-.77-1.92-1.17-3.03-1.14Zm-17.24,60.87c-2.28,0-4.12,1.85-4.12,4.12s1.85,4.12,4.12,4.12h65.99c2.28,0,4.12-1.85,4.12-4.12s-1.85-4.12-4.12-4.12h-65.99Z"/>
      <path class="cls-6" d="M692.74,522.02c-.36-.09-.73-.13-1.11-.12-2.74,.08-4.69,2.69-4,5.34l7.04,26.9-21.73-.14-4.56-6.57c-.62-.9-1.66-1.42-2.75-1.39-2.1,.06-3.6,2.07-3.05,4.1l2.76,10.14c.97,3.57,4.2,6.06,7.9,6.09l62.8,.43s.02,0,.03,0c2.99,.27,5.74-1.64,6.53-4.54,.89-3.3-1.06-6.7-4.35-7.59-.52-.14-1.06-.21-1.59-.21h0s-22.31-.16-22.31-.16l-18.98-30.39c-.6-.96-1.55-1.63-2.63-1.89Zm-24.17,64.8c-2.28,0-4.12,1.85-4.12,4.12s1.85,4.12,4.12,4.12h65.99c2.28,0,4.12-1.85,4.12-4.12s-1.85-4.12-4.12-4.12h-65.99Z"/>
      <path class="cls-6" d="M1188.63,522.02c-.36-.09-.73-.13-1.11-.12-2.74,.08-4.69,2.69-4,5.34l7.04,26.9-21.73-.14-4.56-6.57c-.62-.9-1.66-1.42-2.75-1.39-2.1,.06-3.6,2.07-3.05,4.1l2.76,10.14c.97,3.57,4.2,6.06,7.9,6.09l62.8,.43s.02,0,.03,0c2.99,.27,5.74-1.64,6.53-4.54,.89-3.3-1.06-6.7-4.35-7.59-.52-.14-1.06-.21-1.59-.21h0s-22.31-.16-22.31-.16l-18.98-30.39c-.6-.96-1.55-1.63-2.63-1.89Zm-24.17,64.8c-2.28,0-4.12,1.85-4.12,4.12s1.85,4.12,4.12,4.12h65.99c2.28,0,4.12-1.85,4.12-4.12s-1.85-4.12-4.12-4.12h-65.99Z"/>
    </g>
    <g>
      <path class="cls-1" d="M1768.59,290.9c-17.02-48.85-63.48-83.9-118.13-83.9H407.45c-56.75,0-104.67,37.8-119.95,89.59"/>
      <polygon class="cls-6" points="269.18 276.44 289.54 289.42 313.01 283.78 282.4 332.05 269.18 276.44"/>
    </g>
    <text class="cls-3" transform="translate(843.7 805.1)"><tspan x="0" y="0">Return Trip</tspan></text>
  </g>
</svg>