<?xml version="1.0" encoding="UTF-8"?>
<svg id="Layer_1" data-name="Layer 1" xmlns="http://www.w3.org/2000/svg" viewBox="0 0 1920 1080">
  <defs>
    <style>
      .cls-1, .cls-2 {
        fill: #fff;
      }

      .cls-3 {
        fill: #ddd;
      }

      .cls-4 {
        fill: #313231;
      }

      .cls-5, .cls-6 {
        fill: #5f0f33;
      }

      .cls-7 {
        fill: none;
        stroke: #5f0f33;
        stroke-miterlimit: 10;
        stroke-width: 4px;
      }

      .cls-6 {
        fill-rule: evenodd;
      }

      .cls-2 {
        font-family: Poppins-SemiBold, Poppins;
        font-size: 44.22px;
        font-weight: 600;
      }
    </style>
  </defs>
  <rect class="cls-5" x="801" y="953" width="333" height="84" rx="17.82" ry="17.82"/>
  <g>
    <text class="cls-2" transform="translate(819.95 1008.67)"><tspan x="0" y="0">Multiple Trip</tspan></text>
    <g>
      <path class="cls-3" d="M525.33,163.35c1.09,1.09,2.15,2.21,3.17,3.37l7.02-7.02-3.27-3.27-6.92,6.92Z"/>
      <path class="cls-3" d="M535.01,175.57c.84,1.36,1.63,2.74,2.38,4.16l20.04-20.04-3.27-3.27-19.14,19.14Z"/>
      <path class="cls-3" d="M541.79,190.05c.56,1.66,1.05,3.35,1.48,5.06l35.41-35.41-3.27-3.27-33.62,33.62Z"/>
      <path class="cls-3" d="M545.32,208.08c.03,.48,.08,.95,.1,1.43,.08,1.7,.05,3.37-.03,5.04l54.86-54.86-3.27-3.27-51.65,51.65Z"/>
      <path class="cls-3" d="M541.45,232.52c-2.19,5.51-5.18,10.68-8.84,15.38l88.2-88.2-3.27-3.27-76.09,76.09Z"/>
      <rect class="cls-3" x="517.54" y="207.06" width="145.13" height="4.62" transform="translate(24.79 478.59) rotate(-45)"/>
      <rect class="cls-3" x="538.72" y="207.06" width="145.13" height="4.62" transform="translate(30.99 493.57) rotate(-45)"/>
      <path class="cls-3" d="M583.24,262.32l84.79-84.79c1.01-3.36,2.16-6.69,3.45-9.98l-91.51,91.51,3.27,3.27Z"/>
      <path class="cls-3" d="M603.49,262.32l59.99-59.99c.15-2.4,.37-4.82,.7-7.24l-63.96,63.96,3.27,3.27Z"/>
      <path class="cls-3" d="M621.55,259.05l3.27,3.27,39.42-39.42c-.22-1.99-.41-3.99-.56-5.98l-42.13,42.13Z"/>
      <path class="cls-3" d="M642.87,259.05l3.27,3.27,21.21-21.21c-.42-1.79-.81-3.58-1.16-5.38l-23.32,23.32Z"/>
      <path class="cls-3" d="M664.71,259.05l3.27,3.27,4.4-4.4c-.59-1.6-1.17-3.21-1.7-4.84l-5.97,5.97Z"/>
      <path class="cls-3" d="M906.18,166.34c.58,1.62,1.14,3.24,1.66,4.88l11.52-11.52-3.27-3.27-9.92,9.92Z"/>
      <path class="cls-3" d="M911.18,183.69c.4,1.81,.77,3.62,1.1,5.44l29.43-29.43-3.27-3.27-27.26,27.26Z"/>
      <path class="cls-3" d="M914.03,201.14c.21,2,.39,4,.54,6l47.45-47.45-3.27-3.27-44.71,44.71Z"/>
      <path class="cls-3" d="M914.66,221.84c-.17,2.43-.41,4.86-.77,7.31l69.44-69.44-3.27-3.27-65.41,65.41Z"/>
      <path class="cls-3" d="M909.31,248.51c-1.14,3.51-2.44,6.99-3.88,10.42l99.23-99.23-3.27-3.27-92.08,92.08Z"/>
      <rect class="cls-3" x="900.47" y="207.06" width="145.13" height="4.62" transform="translate(136.95 749.37) rotate(-45)"/>
      <path class="cls-3" d="M963.47,243.54l54.23-54.23c.88-3.38,2.01-6.68,3.35-9.89l-61.83,61.83c1.49,.63,2.95,1.36,4.25,2.29Z"/>
      <path class="cls-3" d="M1015.43,206.37l-42.08,42.08c2.12,.02,4.24,.09,6.35,.19l35.97-35.97c-.06-.86-.14-1.72-.17-2.59-.06-1.25-.07-2.49-.05-3.72Z"/>
      <path class="cls-3" d="M993.31,249.81c.42,.05,.85,.09,1.27,.14,2.01-.54,4.11-.88,6.23-1.1l18.03-18.03c-.49-1.73-.92-3.47-1.3-5.24l-24.22,24.22Z"/>
      <path class="cls-3" d="M1015.16,249.28c1.89,.28,3.74,.61,5.54,1l4.06-4.06c-.73-1.47-1.43-2.95-2.07-4.47l-7.52,7.52Z"/>
      <path class="cls-3" d="M1165.03,163.38c.89,1.3,1.75,2.62,2.57,3.97l7.66-7.66-3.27-3.27-6.96,6.96Z"/>
      <path class="cls-3" d="M1172.68,177.06c.68,1.52,1.33,3.05,1.93,4.61l21.98-21.98-3.27-3.27-20.64,20.64Z"/>
      <path class="cls-3" d="M1177.88,192.16c.44,1.77,.84,3.55,1.18,5.36l37.83-37.83-3.27-3.27-35.74,35.74Z"/>
      <path class="cls-3" d="M1180.52,211.87c.04,2.26,0,4.5-.17,6.71l58.89-58.89-3.27-3.27-55.45,55.45Z"/>
      <path class="cls-3" d="M1176.19,237.52c-1.56,4.27-3.51,8.39-5.79,12.33l90.16-90.16-3.27-3.27-81.1,81.1Z"/>
      <rect class="cls-3" x="1156.37" y="207.06" width="145.13" height="4.62" transform="translate(211.9 930.31) rotate(-45)"/>
      <rect class="cls-3" x="1176.93" y="207.06" width="145.13" height="4.62" transform="translate(217.92 944.85) rotate(-45)"/>
      <path class="cls-3" d="M1221.91,262.32l82.3-82.3c1.19-3.61,2.57-7.18,4.13-10.67l-89.69,89.69,3.27,3.27Z"/>
      <path class="cls-3" d="M1243.24,262.32l56.19-56.19c.06-2.34,.27-4.71,.54-7.08l-60,60,3.27,3.27Z"/>
      <path class="cls-3" d="M1261.29,259.05l3.27,3.27,36.34-36.34c-.29-1.93-.53-3.86-.74-5.8l-38.87,38.87Z"/>
      <path class="cls-3" d="M1285.94,255.21c.9,.05,1.82,.16,2.75,.32,.94,.17,1.86,.42,2.77,.7l5.39-5.39c-.33-1.86-.64-3.73-.94-5.6l-9.97,9.97Z"/>
      <path class="cls-3" d="M1526.16,185.36c.42,1.8,.79,3.6,1.13,5.41"/>
      <path class="cls-3" d="M1528.55,225.78c-.43,2.74-1,5.49-1.69,8.22"/>
      <path class="cls-3" d="M1517.23,259.01s-.02,.04-.03,.06l3.26,3.26"/>
      <path class="cls-4" d="M1302.02,207.5h-117.65c-1.23-46.39-39.35-83.75-86.03-83.75s-84.81,37.36-86.04,83.75h-100.3v2.31c0,67.58-54.98,122.55-122.55,122.55s-122.55-54.98-122.55-122.55v-2.31h-120.24c-1.22-35.4-30.4-63.83-66.1-63.83s-64.87,28.43-66.1,63.83h-57.55c.75,1.42,.95,3.13,.47,4.62h61.67v-2.31c0-33.92,27.59-61.51,61.51-61.51s61.51,27.59,61.51,61.51v2.31h120.22c1.24,69.07,57.8,124.87,127.16,124.87s125.92-55.8,127.16-124.87h100.29v-2.31c0-44.91,36.54-81.44,81.44-81.44s81.44,36.53,81.44,81.44v2.31h117.64c.12,5.98,.72,11.84,1.7,17.58,.4-.04,.8-.06,1.19-.06,.17,0,.35,.02,.52,.03,.6-.28,1.22-.52,1.85-.73,.31-.1,.63-.17,.96-.24-1.05-6.14-1.62-12.45-1.62-18.89v-2.31Z"/>
      <path class="cls-4" d="M1598.03,207.5h-71.71v2.31c0,61.84-50.31,112.15-112.15,112.15-32.02,0-60.93-13.5-81.39-35.09-.76,.13-1.56,.21-2.41,.21-.25,0-.49-.02-.73-.04-.14,0-.28,.04-.42,.04-.9,0-1.77-.06-2.62-.16,21.41,24.3,52.72,39.67,87.58,39.67,63.61,0,115.51-51.14,116.75-114.46h67.25c-.38-1.57-.41-3.13-.14-4.62Z"/>
      <g>
        <path class="cls-4" d="M448.38,267.91c2.76,1.5,5.64,2.82,8.58,3.91l1.61-4.33c-2.73-1.02-5.42-2.24-7.98-3.64l-2.22,4.06Z"/>
        <path class="cls-4" d="M422.02,241.63c1.51,2.74,3.23,5.4,5.12,7.91l3.69-2.78c-1.76-2.33-3.36-4.81-4.76-7.36l-4.05,2.23Z"/>
        <path class="cls-4" d="M433.32,256.65c2.22,2.21,4.62,4.29,7.13,6.16l2.77-3.71c-2.33-1.74-4.57-3.67-6.63-5.73l-3.27,3.27Z"/>
        <path class="cls-4" d="M466.02,274.47c3.05,.66,6.19,1.11,9.33,1.32l.32-4.61c-2.92-.2-5.84-.62-8.68-1.23l-.98,4.52Z"/>
        <path class="cls-4" d="M419.93,223.04l-4.52,.99c.67,3.07,1.57,6.11,2.67,9.04l4.33-1.63c-1.02-2.72-1.86-5.55-2.49-8.4Z"/>
        <path class="cls-4" d="M537.65,231.37l4.33,1.62c1.1-2.94,2-5.98,2.66-9.05l-4.52-.98c-.62,2.85-1.45,5.68-2.47,8.41Z"/>
        <path class="cls-4" d="M484.44,271.17l.33,4.61c3.13-.22,6.27-.67,9.33-1.34l-.98-4.52c-2.84,.62-5.76,1.03-8.68,1.24Z"/>
        <path class="cls-4" d="M529.24,246.71l3.7,2.78c1.89-2.51,3.61-5.18,5.11-7.92l-4.06-2.22c-1.4,2.55-3,5.03-4.75,7.37Z"/>
        <path class="cls-4" d="M516.87,259.07l2.77,3.7c2.5-1.88,4.9-3.95,7.12-6.17l-3.27-3.27c-2.07,2.07-4.3,4-6.63,5.74Z"/>
        <path class="cls-4" d="M501.53,267.46l1.62,4.33c2.93-1.1,5.81-2.41,8.57-3.92l-2.22-4.06c-2.56,1.4-5.24,2.63-7.97,3.64Z"/>
      </g>
      <g>
        <path class="cls-4" d="M705.9,113.45l3.02,3.5c2.31-1.99,4.71-3.91,7.16-5.72l-2.75-3.72c-2.54,1.88-5.03,3.87-7.43,5.93Z"/>
        <path class="cls-4" d="M692.88,126.44c1.51-.2,3.06-.16,4.51,.33,.36,.12,.68,.29,1,.45,1.25-1.37,2.51-2.72,3.82-4.03l-3.27-3.27c-2.09,2.1-4.12,4.29-6.06,6.51Z"/>
        <path class="cls-4" d="M666.02,176.94l4.47,1.19c.78-2.94,1.69-5.88,2.69-8.75l-4.36-1.53c-1.04,2.98-1.98,6.04-2.8,9.09Z"/>
        <path class="cls-4" d="M662.51,195.62l4.6,.51c.33-3.02,.79-6.07,1.35-9.06l-4.55-.85c-.58,3.1-1.05,6.27-1.4,9.4Z"/>
        <path class="cls-4" d="M721.18,102.15l2.47,3.91c2.58-1.62,5.24-3.17,7.93-4.59l-2.17-4.09c-2.78,1.48-5.55,3.08-8.22,4.76Z"/>
        <path class="cls-4" d="M755.88,86.97l1.2,4.47c2.94-.79,5.94-1.47,8.93-2.04l-.86-4.54c-3.1,.58-6.22,1.3-9.27,2.11Z"/>
        <path class="cls-4" d="M897.8,153.56c1.2,2.32,2.35,4.69,3.4,7.08l4.24-1.86c-.75-1.7-1.55-3.4-2.37-5.07-1.75,0-3.51-.05-5.26-.15Z"/>
        <path class="cls-4" d="M904.56,169.16c1.01,2.87,1.92,5.82,2.71,8.75l4.47-1.2c-.82-3.04-1.77-6.1-2.81-9.08l-4.36,1.53Z"/>
        <path class="cls-4" d="M909.31,186.84c.57,2.99,1.03,6.04,1.37,9.06l4.6-.52c-.35-3.13-.83-6.3-1.42-9.4l-4.54,.86Z"/>
        <path class="cls-4" d="M737.96,93.25l1.85,4.24c2.78-1.22,5.65-2.35,8.52-3.35l-1.53-4.36c-2.98,1.05-5.95,2.22-8.84,3.48Z"/>
        <path class="cls-4" d="M774.56,83.44l.52,4.6c3.01-.34,6.08-.57,9.14-.68l-.17-4.62c-3.17,.12-6.36,.36-9.48,.71Z"/>
        <path class="cls-4" d="M793.37,87.34c3.03,.11,6.11,.33,9.14,.67l.5-4.6c-3.14-.34-6.33-.58-9.48-.69l-.17,4.62Z"/>
        <path class="cls-4" d="M811.57,89.35c2.98,.56,5.99,1.24,8.94,2.02l1.19-4.47c-3.06-.81-6.18-1.52-9.27-2.1l-.85,4.55Z"/>
      </g>
      <g>
        <path class="cls-4" d="M1056.22,285.19c2.81,1.55,5.73,2.96,8.7,4.19l1.77-4.27c-2.81-1.16-5.58-2.5-8.23-3.96l-2.24,4.05Z"/>
        <path class="cls-4" d="M1074.04,292.56c3.09,.89,6.26,1.6,9.42,2.13l.77-4.56c-2.99-.5-5.99-1.18-8.91-2.02l-1.27,4.44Z"/>
        <path class="cls-4" d="M1018.29,242.83c.8,1.93,1.71,3.83,2.66,5.71,1.68,.14,3.3,.55,4.87,1.13l.71-.4c-1.47-2.66-2.81-5.42-3.97-8.22l-4.27,1.77Z"/>
        <path class="cls-4" d="M1012.94,224.3c.54,3.17,1.26,6.34,2.15,9.41l4.44-1.28c-.84-2.91-1.52-5.91-2.03-8.9l-4.56,.77Z"/>
        <path class="cls-4" d="M1042,272.34c.17,1.05,.27,2.11,.23,3.16,1.88,1.59,3.81,3.13,5.8,4.55l2.68-3.77c-2.47-1.76-4.88-3.67-7.14-5.7l-1.57,1.76Z"/>
        <path class="cls-4" d="M1093.3,291.13l-.25,4.62c1.58,.09,3.16,.13,4.76,.13s3.27-.05,4.89-.14l-.26-4.62c-3.02,.17-6.12,.17-9.14,0Z"/>
        <path class="cls-4" d="M1158.56,264.04l3.45,3.08c2.13-2.39,4.16-4.93,6.02-7.55l-3.77-2.68c-1.76,2.48-3.68,4.88-5.7,7.14Z"/>
        <path class="cls-4" d="M1111.51,290.11l.77,4.56c3.17-.54,6.34-1.26,9.41-2.15l-1.28-4.44c-2.91,.84-5.91,1.52-8.9,2.03Z"/>
        <path class="cls-4" d="M1176.1,232.31l4.44,1.27c.88-3.08,1.6-6.25,2.13-9.41l-4.56-.77c-.5,2.99-1.18,5.99-2.02,8.91Z"/>
        <path class="cls-4" d="M1169.12,249.16l4.05,2.24c1.55-2.81,2.96-5.73,4.19-8.7l-4.27-1.77c-1.16,2.81-2.5,5.58-3.96,8.23Z"/>
        <path class="cls-4" d="M1129.03,285.05l1.77,4.27c2.95-1.23,5.87-2.64,8.69-4.2l-2.24-4.04c-2.66,1.47-5.43,2.81-8.22,3.97Z"/>
        <path class="cls-4" d="M1144.97,276.21l2.68,3.77c2.61-1.86,5.15-3.89,7.54-6.02l-3.08-3.45c-2.26,2.02-4.66,3.94-7.13,5.7Z"/>
      </g>
      <path class="cls-4" d="M480.56,252.56c-23.41,0-42.46-19.05-42.46-42.46,0-10.71,4-20.95,11.27-28.81l-3.4-3.14c-8.06,8.72-12.5,20.07-12.5,31.95,0,25.96,21.12,47.08,47.08,47.08,8.17,0,16.21-2.12,23.26-6.14l-2.29-4.02c-6.36,3.62-13.61,5.53-20.98,5.53Z"/>
      <path class="cls-4" d="M1097.8,274.74c-35.8,0-64.92-29.12-64.92-64.92,0-9.48,2-18.62,5.94-27.17l-4.2-1.94c-4.22,9.16-6.36,18.95-6.36,29.1,0,38.35,31.2,69.55,69.55,69.55,19.04,0,36.81-7.55,50.04-21.25l-3.33-3.21c-12.35,12.79-28.94,19.84-46.71,19.84Z"/>
      <path class="cls-4" d="M1317.25,209.81c0,6.32,.61,12.54,1.79,18.61,1.58-.21,3.2-.09,4.8,.44-1.3-6.2-1.97-12.57-1.97-19.05,0-50.6,41.16-91.76,91.76-91.76,16.01,0,31.78,4.19,45.58,12.1l2.3-4.01c-14.5-8.32-31.06-12.72-47.88-12.72-53.15,0-96.38,43.24-96.38,96.38Z"/>
      <polygon class="cls-4" points="612.64 130.09 606.27 123.71 599.9 130.09 593.53 123.71 587.15 130.09 580.78 123.71 572.64 131.85 575.91 135.12 580.78 130.25 587.15 136.63 593.53 130.25 599.9 136.63 606.27 130.25 612.64 136.63 620.65 128.62 617.38 125.35 612.64 130.09"/>
      <polygon class="cls-4" points="975.62 147.7 971.44 143.53 967.27 147.7 963.1 143.53 958.92 147.7 954.75 143.53 949.42 148.86 951.56 151 954.75 147.81 958.92 151.99 963.1 147.81 967.27 151.99 971.44 147.81 975.62 151.99 980.86 146.74 978.72 144.6 975.62 147.7"/>
      <g>
        <path class="cls-6" d="M634.53,76.58c.03-.5,.05-1,.05-1.5,0-12.13-7.01-23.62-21.8-23.62-12.2,0-16.54,7.03-19.93,14.72-1.9-1.63-4.37-2.61-7.06-2.61-6.03,0-10.92,4.92-10.92,11,0,.64,.06,1.27,.16,1.88-8.23,1.31-14.52,8.49-14.52,17.15,0,9.59,7.72,17.37,17.23,17.37h53.33c9.52,0,17.23-7.77,17.23-17.37,0-8.4-5.92-15.4-13.77-17.01Z"/>
        <path class="cls-1" d="M634.53,76.58c.03-.5,.05-1,.05-1.5,0-12.13-7.01-23.62-21.8-23.62-12.2,0-16.54,7.03-19.93,14.72-1.9-1.63-4.37-2.61-7.06-2.61-6.03,0-10.92,4.92-10.92,11,0,.64,.06,1.27,.16,1.88-8.23,1.31-14.52,8.49-14.52,17.15,0,9.59,7.72,17.37,17.23,17.37h53.33c9.52,0,17.23-7.77,17.23-17.37,0-8.4-5.92-15.4-13.77-17.01Zm-3.46,30.85h-53.33c-7.56,0-13.7-6.21-13.7-13.84,0-6.85,4.86-12.6,11.55-13.66,.93-.15,1.77-.66,2.32-1.43,.55-.77,.77-1.72,.61-2.65-.07-.43-.11-.85-.11-1.28,0-4.12,3.32-7.47,7.39-7.47,1.75,0,3.44,.62,4.76,1.76,.65,.55,1.46,.85,2.3,.85,.26,0,.52-.03,.78-.09,1.09-.25,2-1,2.45-2.02,3.61-8.18,7.34-12.62,16.7-12.62,13.48,0,18.27,10.82,18.27,20.09,0,.4-.02,.82-.04,1.27-.12,1.76,1.08,3.34,2.81,3.69,6.35,1.31,10.96,7.01,10.96,13.56,0,7.63-6.15,13.84-13.7,13.84Z"/>
      </g>
      <path class="cls-4" d="M634.96,75.66c0-.19,0-.39,0-.58,0-12.34-7.1-24.8-22.97-24.8-12.33,0-17.14,7.04-20.4,14.08-1.95-1.27-4.24-1.96-6.59-1.96-6.67,0-12.1,5.46-12.1,12.18,0,.31,.01,.62,.04,.93-8.41,1.87-14.4,9.3-14.4,18.1,0,10.22,8.26,18.54,18.41,18.54h53.33c10.15,0,18.41-8.32,18.41-18.54,0-8.43-5.72-15.82-13.73-17.94Zm-4.68,34.13h-53.33c-8.85,0-16.06-7.26-16.06-16.19,0-8.02,5.69-14.74,13.53-15.99l1.18-.19-.2-1.17c-.1-.56-.15-1.13-.15-1.68,0-5.42,4.37-9.83,9.74-9.83,2.31,0,4.54,.83,6.29,2.33l1.2,1.03,.64-1.45c3.26-7.39,7.15-14.02,18.86-14.02,14.24,0,20.62,11.27,20.62,22.44,0,.48-.02,.96-.05,1.43l-.07,1.02,1,.21c7.44,1.53,12.83,8.2,12.83,15.86,0,8.93-7.2,16.19-16.06,16.19Z"/>
      <g>
        <path class="cls-6" d="M996.23,100.52c.03-.5,.05-1,.05-1.5,0-12.13-7.01-23.62-21.8-23.62-12.2,0-16.54,7.03-19.93,14.72-1.9-1.63-4.37-2.61-7.06-2.61-6.03,0-10.92,4.92-10.92,11,0,.64,.06,1.27,.16,1.88-8.23,1.31-14.52,8.49-14.52,17.15,0,9.59,7.72,17.37,17.23,17.37h53.33c9.52,0,17.23-7.77,17.23-17.37,0-8.4-5.92-15.4-13.77-17.01Z"/>
        <path class="cls-1" d="M996.23,100.52c.03-.5,.05-1,.05-1.5,0-12.13-7.01-23.62-21.8-23.62-12.2,0-16.54,7.03-19.93,14.72-1.9-1.63-4.37-2.61-7.06-2.61-6.03,0-10.92,4.92-10.92,11,0,.64,.06,1.27,.16,1.88-8.23,1.31-14.52,8.49-14.52,17.15,0,9.59,7.72,17.37,17.23,17.37h53.33c9.52,0,17.23-7.77,17.23-17.37,0-8.4-5.92-15.4-13.77-17.01Zm-3.46,30.85h-53.33c-7.56,0-13.7-6.21-13.7-13.84,0-6.85,4.86-12.6,11.55-13.66,.93-.15,1.77-.66,2.32-1.43,.55-.77,.77-1.72,.61-2.65-.07-.43-.11-.85-.11-1.28,0-4.12,3.32-7.47,7.39-7.47,1.75,0,3.44,.62,4.76,1.76,.65,.55,1.46,.85,2.3,.85,.26,0,.52-.03,.78-.09,1.09-.25,2-1,2.45-2.02,3.61-8.18,7.34-12.62,16.7-12.62,13.48,0,18.27,10.82,18.27,20.09,0,.4-.02,.82-.04,1.27-.12,1.76,1.08,3.34,2.81,3.69,6.35,1.31,10.96,7.01,10.96,13.56,0,7.63-6.15,13.84-13.7,13.84Z"/>
      </g>
      <path class="cls-4" d="M996.66,99.6c0-.19,0-.39,0-.58,0-12.34-7.1-24.8-22.97-24.8-12.33,0-17.14,7.04-20.4,14.08-1.95-1.27-4.24-1.96-6.59-1.96-6.67,0-12.1,5.46-12.1,12.18,0,.31,.01,.62,.04,.93-8.41,1.87-14.4,9.3-14.4,18.1,0,10.22,8.26,18.54,18.41,18.54h53.33c10.15,0,18.41-8.32,18.41-18.54,0-8.43-5.72-15.82-13.73-17.94Zm-4.68,34.13h-53.33c-8.85,0-16.06-7.26-16.06-16.19,0-8.02,5.69-14.74,13.53-15.99l1.18-.19-.2-1.17c-.1-.56-.15-1.13-.15-1.68,0-5.42,4.37-9.83,9.74-9.83,2.31,0,4.54,.83,6.29,2.33l1.2,1.03,.64-1.45c3.26-7.39,7.15-14.02,18.86-14.02,14.24,0,20.62,11.27,20.62,22.44,0,.48-.02,.96-.05,1.43l-.07,1.02,1,.21c7.44,1.53,12.83,8.2,12.83,15.86,0,8.93-7.2,16.19-16.06,16.19Z"/>
      <polygon class="cls-4" points="1249.58 140.93 1245.41 136.76 1241.24 140.93 1237.06 136.76 1232.89 140.93 1228.72 136.76 1223.39 142.09 1225.53 144.23 1228.72 141.04 1232.89 145.21 1237.06 141.04 1241.24 145.21 1245.41 141.04 1249.58 145.21 1254.83 139.97 1252.68 137.83 1249.58 140.93"/>
      <g>
        <path class="cls-6" d="M1270.2,93.75c.03-.5,.05-1,.05-1.5,0-12.13-7.01-23.62-21.8-23.62-12.2,0-16.54,7.03-19.93,14.72-1.9-1.63-4.37-2.61-7.06-2.61-6.03,0-10.92,4.92-10.92,11,0,.64,.06,1.27,.16,1.88-8.23,1.31-14.52,8.49-14.52,17.15,0,9.59,7.72,17.37,17.23,17.37h53.33c9.52,0,17.23-7.77,17.23-17.37,0-8.4-5.92-15.4-13.77-17.01Z"/>
        <path class="cls-1" d="M1270.2,93.75c.03-.5,.05-1,.05-1.5,0-12.13-7.01-23.62-21.8-23.62-12.2,0-16.54,7.03-19.93,14.72-1.9-1.63-4.37-2.61-7.06-2.61-6.03,0-10.92,4.92-10.92,11,0,.64,.06,1.27,.16,1.88-8.23,1.31-14.52,8.49-14.52,17.15,0,9.59,7.72,17.37,17.23,17.37h53.33c9.52,0,17.23-7.77,17.23-17.37,0-8.4-5.92-15.4-13.77-17.01Zm-3.46,30.85h-53.33c-7.56,0-13.7-6.21-13.7-13.84,0-6.85,4.86-12.6,11.55-13.66,.93-.15,1.77-.66,2.32-1.43,.55-.77,.77-1.72,.61-2.65-.07-.43-.11-.85-.11-1.28,0-4.12,3.32-7.47,7.39-7.47,1.75,0,3.44,.62,4.76,1.76,.65,.55,1.46,.85,2.3,.85,.26,0,.52-.03,.78-.09,1.09-.25,2-1,2.45-2.02,3.61-8.18,7.34-12.62,16.7-12.62,13.48,0,18.27,10.82,18.27,20.09,0,.4-.02,.82-.04,1.27-.12,1.76,1.08,3.34,2.81,3.69,6.35,1.31,10.96,7.01,10.96,13.56,0,7.63-6.15,13.84-13.7,13.84Z"/>
      </g>
      <path class="cls-4" d="M1270.63,92.83c0-.19,0-.39,0-.58,0-12.34-7.1-24.8-22.97-24.8-12.33,0-17.14,7.04-20.4,14.08-1.95-1.27-4.24-1.96-6.59-1.96-6.67,0-12.1,5.46-12.1,12.18,0,.31,.01,.62,.04,.93-8.41,1.87-14.4,9.3-14.4,18.1,0,10.22,8.26,18.54,18.41,18.54h53.33c10.15,0,18.41-8.32,18.41-18.54,0-8.43-5.72-15.82-13.73-17.94Zm-4.68,34.13h-53.33c-8.85,0-16.06-7.26-16.06-16.19,0-8.02,5.69-14.74,13.53-15.99l1.18-.19-.2-1.17c-.1-.56-.15-1.13-.15-1.68,0-5.42,4.37-9.83,9.74-9.83,2.31,0,4.54,.83,6.29,2.33l1.2,1.03,.64-1.45c3.26-7.39,7.15-14.02,18.86-14.02,14.24,0,20.62,11.27,20.62,22.44,0,.48-.02,.96-.05,1.43l-.07,1.02,1,.21c7.44,1.53,12.83,8.2,12.83,15.86,0,8.93-7.2,16.19-16.06,16.19Z"/>
      <path class="cls-4" d="M788.91,104.88c-8.95,0-17.84,1.13-26.42,3.36l1.16,4.48c8.2-2.13,16.7-3.21,25.26-3.21,55.31,0,100.31,45,100.31,100.31,0,21.42-6.65,41.85-19.24,59.09l3.73,2.73c13.17-18.04,20.13-39.41,20.13-61.82,0-57.86-47.07-104.94-104.94-104.94Z"/>
      <g>
        <path class="cls-4" d="M1380.21,97.9l1.32,4.43c2.95-.88,5.98-1.65,8.99-2.28l-.95-4.53c-3.13,.66-6.28,1.45-9.36,2.37Z"/>
        <path class="cls-4" d="M1331,127.31l3.27,3.27c2.18-2.18,4.47-4.29,6.82-6.28l-2.99-3.53c-2.44,2.07-4.83,4.27-7.09,6.54Z"/>
        <path class="cls-4" d="M1345.7,114.82l2.69,3.76c2.51-1.8,5.12-3.51,7.75-5.08l-2.37-3.97c-2.74,1.64-5.46,3.42-8.07,5.29Z"/>
        <path class="cls-4" d="M1362.25,104.92l2.04,4.15c2.75-1.35,5.61-2.61,8.48-3.73l-1.69-4.3c-2.99,1.17-5.96,2.48-8.83,3.89Z"/>
        <path class="cls-4" d="M1297.73,195.47l4.59,.56c.37-3.05,.88-6.13,1.51-9.15l-4.53-.94c-.65,3.14-1.18,6.34-1.57,9.52Z"/>
        <path class="cls-4" d="M1308.66,158.6l4.15,2.03c1.35-2.76,2.83-5.5,4.41-8.15l-3.97-2.37c-1.65,2.76-3.19,5.62-4.6,8.49Z"/>
        <path class="cls-4" d="M1301.66,176.58l4.43,1.31c.88-2.96,1.89-5.91,3-8.77l-4.31-1.68c-1.16,2.98-2.21,6.05-3.13,9.14Z"/>
        <path class="cls-4" d="M1318.53,142.03l3.76,2.69c1.78-2.49,3.7-4.96,5.7-7.32l-3.53-2.99c-2.08,2.46-4.07,5.02-5.93,7.62Z"/>
        <path class="cls-4" d="M1470.96,113.41c2.64,1.58,5.25,3.28,7.76,5.07l2.69-3.77c-2.61-1.86-5.33-3.64-8.08-5.28l-2.37,3.97Z"/>
        <path class="cls-4" d="M1486.04,124.18c2.36,1.99,4.65,4.1,6.82,6.27l3.27-3.27c-2.26-2.26-4.65-4.46-7.1-6.54l-2.99,3.53Z"/>
        <path class="cls-4" d="M1499.15,137.26c1.98,2.34,3.9,4.8,5.71,7.31l3.76-2.7c-1.87-2.61-3.87-5.17-5.94-7.61l-3.53,2.99Z"/>
        <path class="cls-4" d="M1523.39,186.7c.63,3,1.14,6.07,1.52,9.15l4.59-.57c-.4-3.2-.93-6.4-1.59-9.52l-4.53,.95Z"/>
        <path class="cls-4" d="M1418.17,97.76c3.09,.12,6.2,.37,9.24,.75l.56-4.59c-3.16-.39-6.4-.65-9.62-.78l-.19,4.62Z"/>
        <path class="cls-4" d="M1454.31,105.27c2.86,1.12,5.72,2.37,8.5,3.72l2.03-4.15c-2.89-1.41-5.86-2.71-8.84-3.87l-1.68,4.31Z"/>
        <path class="cls-4" d="M1399.08,93.94l.57,4.59c3.05-.38,6.16-.64,9.24-.77l-.19-4.62c-3.21,.13-6.44,.4-9.62,.8Z"/>
        <path class="cls-4" d="M1436.55,100.01c3.02,.63,6.05,1.39,8.99,2.26l1.31-4.43c-3.06-.91-6.21-1.7-9.36-2.36l-.94,4.53Z"/>
      </g>
      <path class="cls-5" d="M1415.53,184.28c-1.58,.02-2.92,1.3-2.92,2.97v17.59l-13.05-3.44-1.82-4.91c-.23-.6-.74-1.05-1.37-1.2-1.19-.27-2.34,.64-2.34,1.87v6.93c0,2.41,1.62,4.52,3.95,5.13l38.91,10.32h0c.31,.06,.62,.1,.93,.1,2.2,0,3.98-1.78,3.98-3.98h0c0-1.91-1.36-3.55-3.23-3.91l-13.26-3.55-6.93-21.86c-.32-1-1.14-1.76-2.17-2-.23-.05-.46-.07-.69-.07Zm-18.84,43.32c-1.47,0-2.65,1.19-2.65,2.65s1.19,2.65,2.65,2.65h42.47c1.47,0,2.65-1.19,2.65-2.65s-1.19-2.65-2.65-2.65h-42.47Z"/>
      <path class="cls-5" d="M469.16,183.61c-.24,0-.48,.04-.71,.11-1.69,.51-2.46,2.46-1.59,3.99l8.9,15.53-13.52,3.57-3.94-3.31c-.54-.45-1.27-.6-1.94-.4-1.3,.39-1.89,1.89-1.2,3.06l3.42,5.84c1.2,2.05,3.63,3.06,5.93,2.45l39.08-10.3s.01,0,.02,0c1.9-.33,3.29-1.99,3.29-3.92,0-2.2-1.78-3.98-3.98-3.98-.35,0-.69,.05-1.03,.13h0s-13.88,3.65-13.88,3.65l-16.9-15.69c-.54-.5-1.24-.75-1.95-.73Zm-11.09,39.17c-1.47,0-2.65,1.19-2.65,2.65s1.19,2.65,2.65,2.65h42.47c1.47,0,2.65-1.19,2.65-2.65s-1.19-2.65-2.65-2.65h-42.47Z"/>
      <path class="cls-5" d="M785.05,181.98c-.23-.04-.46-.06-.7-.04-1.71,.13-2.85,1.81-2.34,3.45l5.16,16.57-13.55,.54-3.03-3.96c-.41-.54-1.08-.84-1.76-.79-1.31,.09-2.18,1.39-1.78,2.64l2.01,6.24c.71,2.2,2.79,3.66,5.1,3.57l39.16-1.54s.01,0,.02,0c1.87,.08,3.53-1.19,3.94-3.02,.46-2.08-.85-4.14-2.93-4.61-.33-.07-.66-.1-1-.09h0s-13.91,.54-13.91,.54l-12.7-18.4c-.4-.58-1.01-.97-1.69-1.1Zm-14.98,40.81c-1.47,0-2.65,1.19-2.65,2.65s1.19,2.65,2.65,2.65h42.47c1.47,0,2.65-1.19,2.65-2.65s-1.19-2.65-2.65-2.65h-42.47Z"/>
      <path class="cls-5" d="M1096.05,181.98c-.23-.04-.46-.06-.7-.04-1.71,.13-2.85,1.81-2.34,3.45l5.16,16.57-13.55,.54-3.03-3.96c-.41-.54-1.08-.84-1.76-.79-1.31,.09-2.18,1.39-1.78,2.64l2.01,6.24c.71,2.2,2.79,3.66,5.1,3.57l39.16-1.54s.01,0,.02,0c1.87,.08,3.53-1.19,3.94-3.02,.46-2.08-.85-4.14-2.93-4.61-.33-.07-.66-.1-1-.09h0s-13.91,.54-13.91,.54l-12.7-18.4c-.4-.58-1.01-.97-1.69-1.1Zm-14.98,40.81c-1.47,0-2.65,1.19-2.65,2.65s1.19,2.65,2.65,2.65h42.47c1.47,0,2.65-1.19,2.65-2.65s-1.19-2.65-2.65-2.65h-42.47Z"/>
      <path class="cls-5" d="M785.05,488.98c-.23-.04-.46-.06-.7-.04-1.71,.13-2.85,1.81-2.34,3.45l5.16,16.57-13.55,.54-3.03-3.96c-.41-.54-1.08-.84-1.76-.79-1.31,.09-2.18,1.39-1.78,2.64l2.01,6.24c.71,2.2,2.79,3.66,5.1,3.57l39.16-1.54s.01,0,.02,0c1.87,.08,3.53-1.19,3.94-3.02,.46-2.08-.85-4.14-2.93-4.61-.33-.07-.66-.1-1-.09h0s-13.91,.54-13.91,.54l-12.7-18.4c-.4-.58-1.01-.97-1.69-1.1Zm-14.98,40.81c-1.47,0-2.65,1.19-2.65,2.65s1.19,2.65,2.65,2.65h42.47c1.47,0,2.65-1.19,2.65-2.65s-1.19-2.65-2.65-2.65h-42.47Z"/>
      <path class="cls-5" d="M1096.05,488.98c-.23-.04-.46-.06-.7-.04-1.71,.13-2.85,1.81-2.34,3.45l5.16,16.57-13.55,.54-3.03-3.96c-.41-.54-1.08-.84-1.76-.79-1.31,.09-2.18,1.39-1.78,2.64l2.01,6.24c.71,2.2,2.79,3.66,5.1,3.57l39.16-1.54s.01,0,.02,0c1.87,.08,3.53-1.19,3.94-3.02,.46-2.08-.85-4.14-2.93-4.61-.33-.07-.66-.1-1-.09h0s-13.91,.54-13.91,.54l-12.7-18.4c-.4-.58-1.01-.97-1.69-1.1Zm-14.98,40.81c-1.47,0-2.65,1.19-2.65,2.65s1.19,2.65,2.65,2.65h42.47c1.47,0,2.65-1.19,2.65-2.65s-1.19-2.65-2.65-2.65h-42.47Z"/>
      <g>
        <path class="cls-3" d="M525.33,469.42c1.09,1.09,2.15,2.21,3.17,3.37l7.02-7.02-3.27-3.27-6.92,6.92Z"/>
        <path class="cls-3" d="M535.01,481.64c.84,1.36,1.63,2.74,2.38,4.16l20.04-20.04-3.27-3.27-19.14,19.14Z"/>
        <path class="cls-3" d="M541.79,496.12c.56,1.66,1.05,3.35,1.48,5.06l35.41-35.41-3.27-3.27-33.62,33.62Z"/>
        <path class="cls-3" d="M545.32,514.15c.03,.48,.08,.95,.1,1.43,.08,1.7,.05,3.37-.03,5.04l54.86-54.86-3.27-3.27-51.65,51.65Z"/>
        <path class="cls-3" d="M541.45,538.59c-2.19,5.51-5.18,10.68-8.84,15.38l88.2-88.2-3.27-3.27-76.09,76.09Z"/>
        <rect class="cls-3" x="517.54" y="513.13" width="145.13" height="4.62" transform="translate(-191.64 568.24) rotate(-45)"/>
        <rect class="cls-3" x="538.72" y="513.13" width="145.13" height="4.62" transform="translate(-185.43 583.22) rotate(-45)"/>
        <path class="cls-3" d="M583.24,568.39l84.79-84.79c1.01-3.36,2.16-6.69,3.45-9.98l-91.51,91.51,3.27,3.27Z"/>
        <path class="cls-3" d="M603.49,568.39l59.99-59.99c.15-2.4,.37-4.82,.7-7.24l-63.96,63.96,3.27,3.27Z"/>
        <path class="cls-3" d="M621.55,565.12l3.27,3.27,39.42-39.42c-.22-1.99-.41-3.99-.56-5.98l-42.13,42.13Z"/>
        <path class="cls-3" d="M642.87,565.12l3.27,3.27,21.21-21.21c-.42-1.79-.81-3.58-1.16-5.38l-23.32,23.32Z"/>
        <path class="cls-3" d="M664.71,565.12l3.27,3.27,4.4-4.4c-.59-1.6-1.17-3.21-1.7-4.84l-5.97,5.97Z"/>
        <path class="cls-3" d="M906.18,472.42c.58,1.62,1.14,3.24,1.66,4.88l11.52-11.52-3.27-3.27-9.92,9.92Z"/>
        <path class="cls-3" d="M911.18,489.76c.4,1.81,.77,3.62,1.1,5.44l29.43-29.43-3.27-3.27-27.26,27.26Z"/>
        <path class="cls-3" d="M914.03,507.21c.21,2,.39,4,.54,6l47.45-47.45-3.27-3.27-44.71,44.71Z"/>
        <path class="cls-3" d="M914.66,527.91c-.17,2.43-.41,4.86-.77,7.31l69.44-69.44-3.27-3.27-65.41,65.41Z"/>
        <path class="cls-3" d="M909.31,554.58c-1.14,3.51-2.44,6.99-3.88,10.42l99.23-99.23-3.27-3.27-92.08,92.08Z"/>
        <rect class="cls-3" x="900.47" y="513.13" width="145.13" height="4.62" transform="translate(-79.48 839.01) rotate(-45)"/>
        <path class="cls-3" d="M963.47,549.61l54.23-54.23c.88-3.38,2.01-6.68,3.35-9.89l-61.83,61.83c1.49,.63,2.95,1.36,4.25,2.29Z"/>
        <path class="cls-3" d="M1015.43,512.44l-42.08,42.08c2.12,.02,4.24,.09,6.35,.19l35.97-35.97c-.06-.86-.14-1.72-.17-2.59-.06-1.25-.07-2.49-.05-3.72Z"/>
        <path class="cls-3" d="M993.31,555.88c.42,.05,.85,.09,1.27,.14,2.01-.54,4.11-.88,6.23-1.1l18.03-18.03c-.49-1.73-.92-3.47-1.3-5.24l-24.22,24.22Z"/>
        <path class="cls-3" d="M1015.16,555.36c1.89,.28,3.74,.61,5.54,1l4.06-4.06c-.73-1.47-1.43-2.95-2.07-4.47l-7.52,7.52Z"/>
        <path class="cls-3" d="M1165.03,469.46c.89,1.3,1.75,2.62,2.57,3.97l7.66-7.66-3.27-3.27-6.96,6.96Z"/>
        <path class="cls-3" d="M1172.68,483.14c.68,1.52,1.33,3.05,1.93,4.61l21.98-21.98-3.27-3.27-20.64,20.64Z"/>
        <path class="cls-3" d="M1177.88,498.24c.44,1.77,.84,3.55,1.18,5.36l37.83-37.83-3.27-3.27-35.74,35.74Z"/>
        <path class="cls-3" d="M1180.52,517.95c.04,2.26,0,4.5-.17,6.71l58.89-58.89-3.27-3.27-55.45,55.45Z"/>
        <path class="cls-3" d="M1176.19,543.59c-1.56,4.27-3.51,8.39-5.79,12.33l90.16-90.16-3.27-3.27-81.1,81.1Z"/>
        <rect class="cls-3" x="1156.37" y="513.13" width="145.13" height="4.62" transform="translate(-4.53 1019.96) rotate(-45)"/>
        <rect class="cls-3" x="1176.93" y="513.13" width="145.13" height="4.62" transform="translate(1.49 1034.5) rotate(-45)"/>
        <path class="cls-3" d="M1221.91,568.39l82.3-82.3c1.19-3.61,2.57-7.18,4.13-10.67l-89.69,89.69,3.27,3.27Z"/>
        <path class="cls-3" d="M1243.24,568.39l56.19-56.19c.06-2.34,.27-4.71,.54-7.08l-60,60,3.27,3.27Z"/>
        <path class="cls-3" d="M1261.29,565.12l3.27,3.27,36.34-36.34c-.29-1.93-.53-3.86-.74-5.8l-38.87,38.87Z"/>
        <path class="cls-3" d="M1285.94,561.28c.9,.05,1.82,.16,2.75,.32,.94,.17,1.86,.42,2.77,.7l5.39-5.39c-.33-1.86-.64-3.73-.94-5.6l-9.97,9.97Z"/>
        <path class="cls-3" d="M1526.16,491.43c.42,1.8,.79,3.6,1.13,5.41"/>
        <path class="cls-3" d="M1528.55,531.85c-.43,2.74-1,5.49-1.69,8.22"/>
        <path class="cls-3" d="M1517.23,565.08s-.02,.04-.03,.06l3.26,3.26"/>
        <path class="cls-4" d="M1302.02,513.57h-117.65c-1.23-46.39-39.35-83.75-86.03-83.75s-84.81,37.36-86.04,83.75h-100.3v2.31c0,67.58-54.98,122.55-122.55,122.55s-122.55-54.98-122.55-122.55v-2.31h-120.24c-1.22-35.4-30.4-63.83-66.1-63.83s-64.87,28.43-66.1,63.83l-37.55,1c.75,1.42,.95,3.13,.47,4.62l41.67-1v-2.31c0-33.92,27.59-61.51,61.51-61.51s61.51,27.59,61.51,61.51v2.31h120.22c1.24,69.07,57.8,124.87,127.16,124.87s125.92-55.8,127.16-124.87h100.29v-2.31c0-44.91,36.54-81.44,81.44-81.44s81.44,36.53,81.44,81.44v2.31h117.64c.12,5.98,.72,11.84,1.7,17.58,.4-.04,.8-.06,1.19-.06,.17,0,.35,.02,.52,.03,.6-.28,1.22-.52,1.85-.73,.31-.1,.63-.17,.96-.24-1.05-6.14-1.62-12.45-1.62-18.89v-2.31Z"/>
        <path class="cls-4" d="M1598.03,513.57h-71.71v2.31c0,61.84-50.31,112.15-112.15,112.15-32.02,0-60.93-13.5-81.39-35.09-.76,.13-1.56,.21-2.41,.21-.25,0-.49-.02-.73-.04-.14,0-.28,.04-.42,.04-.9,0-1.77-.06-2.62-.16,21.41,24.3,52.72,39.67,87.58,39.67,63.61,0,115.51-51.14,116.75-114.46h67.25c-.38-1.57-.41-3.13-.14-4.62Z"/>
        <g>
          <path class="cls-4" d="M448.38,573.98c2.76,1.5,5.64,2.82,8.58,3.91l1.61-4.33c-2.73-1.02-5.42-2.24-7.98-3.64l-2.22,4.06Z"/>
          <path class="cls-4" d="M422.02,547.7c1.51,2.74,3.23,5.4,5.12,7.91l3.69-2.78c-1.76-2.33-3.36-4.81-4.76-7.36l-4.05,2.23Z"/>
          <path class="cls-4" d="M433.32,562.73c2.22,2.21,4.62,4.29,7.13,6.16l2.77-3.71c-2.33-1.74-4.57-3.67-6.63-5.73l-3.27,3.27Z"/>
          <path class="cls-4" d="M466.02,580.54c3.05,.66,6.19,1.11,9.33,1.32l.32-4.61c-2.92-.2-5.84-.62-8.68-1.23l-.98,4.52Z"/>
          <path class="cls-4" d="M419.93,529.12l-4.52,.99c.67,3.07,1.57,6.11,2.67,9.04l4.33-1.63c-1.02-2.72-1.86-5.55-2.49-8.4Z"/>
          <path class="cls-4" d="M537.65,537.44l4.33,1.62c1.1-2.94,2-5.98,2.66-9.05l-4.52-.98c-.62,2.85-1.45,5.68-2.47,8.41Z"/>
          <path class="cls-4" d="M484.44,577.24l.33,4.61c3.13-.22,6.27-.67,9.33-1.34l-.98-4.52c-2.84,.62-5.76,1.03-8.68,1.24Z"/>
          <path class="cls-4" d="M529.24,552.78l3.7,2.78c1.89-2.51,3.61-5.18,5.11-7.92l-4.06-2.22c-1.4,2.55-3,5.03-4.75,7.37Z"/>
          <path class="cls-4" d="M516.87,565.14l2.77,3.7c2.5-1.88,4.9-3.95,7.12-6.17l-3.27-3.27c-2.07,2.07-4.3,4-6.63,5.74Z"/>
          <path class="cls-4" d="M501.53,573.53l1.62,4.33c2.93-1.1,5.81-2.41,8.57-3.92l-2.22-4.06c-2.56,1.4-5.24,2.63-7.97,3.64Z"/>
        </g>
        <g>
          <path class="cls-4" d="M705.9,419.53l3.02,3.5c2.31-1.99,4.71-3.91,7.16-5.72l-2.75-3.72c-2.54,1.88-5.03,3.87-7.43,5.93Z"/>
          <path class="cls-4" d="M692.88,432.51c1.51-.2,3.06-.16,4.51,.33,.36,.12,.68,.29,1,.45,1.25-1.37,2.51-2.72,3.82-4.03l-3.27-3.27c-2.09,2.1-4.12,4.29-6.06,6.51Z"/>
          <path class="cls-4" d="M666.02,483.01l4.47,1.19c.78-2.94,1.69-5.88,2.69-8.75l-4.36-1.53c-1.04,2.98-1.98,6.04-2.8,9.09Z"/>
          <path class="cls-4" d="M662.51,501.69l4.6,.51c.33-3.02,.79-6.07,1.35-9.06l-4.55-.85c-.58,3.1-1.05,6.27-1.4,9.4Z"/>
          <path class="cls-4" d="M721.18,408.23l2.47,3.91c2.58-1.62,5.24-3.17,7.93-4.59l-2.17-4.09c-2.78,1.48-5.55,3.08-8.22,4.76Z"/>
          <path class="cls-4" d="M755.88,393.04l1.2,4.47c2.94-.79,5.94-1.47,8.93-2.04l-.86-4.54c-3.1,.58-6.22,1.3-9.27,2.11Z"/>
          <path class="cls-4" d="M897.8,459.64c1.2,2.32,2.35,4.69,3.4,7.08l4.24-1.86c-.75-1.7-1.55-3.4-2.37-5.07-1.75,0-3.51-.05-5.26-.15Z"/>
          <path class="cls-4" d="M904.56,475.23c1.01,2.87,1.92,5.82,2.71,8.75l4.47-1.2c-.82-3.04-1.77-6.1-2.81-9.08l-4.36,1.53Z"/>
          <path class="cls-4" d="M909.31,492.91c.57,2.99,1.03,6.04,1.37,9.06l4.6-.52c-.35-3.13-.83-6.3-1.42-9.4l-4.54,.86Z"/>
          <path class="cls-4" d="M737.96,399.33l1.85,4.24c2.78-1.22,5.65-2.35,8.52-3.35l-1.53-4.36c-2.98,1.05-5.95,2.22-8.84,3.48Z"/>
          <path class="cls-4" d="M774.56,389.51l.52,4.6c3.01-.34,6.08-.57,9.14-.68l-.17-4.62c-3.17,.12-6.36,.36-9.48,.71Z"/>
          <path class="cls-4" d="M793.37,393.41c3.03,.11,6.11,.33,9.14,.67l.5-4.6c-3.14-.34-6.33-.58-9.48-.69l-.17,4.62Z"/>
          <path class="cls-4" d="M811.57,395.43c2.98,.56,5.99,1.24,8.94,2.02l1.19-4.47c-3.06-.81-6.18-1.52-9.27-2.1l-.85,4.55Z"/>
        </g>
        <g>
          <path class="cls-4" d="M1056.22,591.26c2.81,1.55,5.73,2.96,8.7,4.19l1.77-4.27c-2.81-1.16-5.58-2.5-8.23-3.96l-2.24,4.05Z"/>
          <path class="cls-4" d="M1074.04,598.63c3.09,.89,6.26,1.6,9.42,2.13l.77-4.56c-2.99-.5-5.99-1.18-8.91-2.02l-1.27,4.44Z"/>
          <path class="cls-4" d="M1018.29,548.9c.8,1.93,1.71,3.83,2.66,5.71,1.68,.14,3.3,.55,4.87,1.13l.71-.4c-1.47-2.66-2.81-5.42-3.97-8.22l-4.27,1.77Z"/>
          <path class="cls-4" d="M1012.94,530.37c.54,3.17,1.26,6.34,2.15,9.41l4.44-1.28c-.84-2.91-1.52-5.91-2.03-8.9l-4.56,.77Z"/>
          <path class="cls-4" d="M1042,578.41c.17,1.05,.27,2.11,.23,3.16,1.88,1.59,3.81,3.13,5.8,4.55l2.68-3.77c-2.47-1.76-4.88-3.67-7.14-5.7l-1.57,1.76Z"/>
          <path class="cls-4" d="M1093.3,597.21l-.25,4.62c1.58,.09,3.16,.13,4.76,.13s3.27-.05,4.89-.14l-.26-4.62c-3.02,.17-6.12,.17-9.14,0Z"/>
          <path class="cls-4" d="M1158.56,570.12l3.45,3.08c2.13-2.39,4.16-4.93,6.02-7.55l-3.77-2.68c-1.76,2.48-3.68,4.88-5.7,7.14Z"/>
          <path class="cls-4" d="M1111.51,596.18l.77,4.56c3.17-.54,6.34-1.26,9.41-2.15l-1.28-4.44c-2.91,.84-5.91,1.52-8.9,2.03Z"/>
          <path class="cls-4" d="M1176.1,538.38l4.44,1.27c.88-3.08,1.6-6.25,2.13-9.41l-4.56-.77c-.5,2.99-1.18,5.99-2.02,8.91Z"/>
          <path class="cls-4" d="M1169.12,555.23l4.05,2.24c1.55-2.81,2.96-5.73,4.19-8.7l-4.27-1.77c-1.16,2.81-2.5,5.58-3.96,8.23Z"/>
          <path class="cls-4" d="M1129.03,591.12l1.77,4.27c2.95-1.23,5.87-2.64,8.69-4.2l-2.24-4.04c-2.66,1.47-5.43,2.81-8.22,3.97Z"/>
          <path class="cls-4" d="M1144.97,582.28l2.68,3.77c2.61-1.86,5.15-3.89,7.54-6.02l-3.08-3.45c-2.26,2.02-4.66,3.94-7.13,5.7Z"/>
        </g>
        <path class="cls-4" d="M480.56,558.64c-23.41,0-42.46-19.05-42.46-42.46,0-10.71,4-20.95,11.27-28.81l-3.4-3.14c-8.06,8.72-12.5,20.07-12.5,31.95,0,25.96,21.12,47.08,47.08,47.08,8.17,0,16.21-2.12,23.26-6.14l-2.29-4.02c-6.36,3.62-13.61,5.53-20.98,5.53Z"/>
        <path class="cls-4" d="M1097.8,580.81c-35.8,0-64.92-29.12-64.92-64.92,0-9.48,2-18.62,5.94-27.17l-4.2-1.94c-4.22,9.16-6.36,18.95-6.36,29.1,0,38.35,31.2,69.55,69.55,69.55,19.04,0,36.81-7.55,50.04-21.25l-3.33-3.21c-12.35,12.79-28.94,19.84-46.71,19.84Z"/>
        <path class="cls-4" d="M1317.25,515.89c0,6.32,.61,12.54,1.79,18.61,1.58-.21,3.2-.09,4.8,.44-1.3-6.2-1.97-12.57-1.97-19.05,0-50.6,41.16-91.76,91.76-91.76,16.01,0,31.78,4.19,45.58,12.1l2.3-4.01c-14.5-8.32-31.06-12.72-47.88-12.72-53.15,0-96.38,43.24-96.38,96.38Z"/>
        <polygon class="cls-4" points="612.64 436.16 606.27 429.79 599.9 436.16 593.53 429.79 587.15 436.16 580.78 429.79 572.64 437.93 575.91 441.2 580.78 436.33 587.15 442.7 593.53 436.33 599.9 442.7 606.27 436.33 612.64 442.7 620.65 434.69 617.38 431.42 612.64 436.16"/>
        <polygon class="cls-4" points="975.62 453.78 971.44 449.6 967.27 453.78 963.1 449.6 958.92 453.78 954.75 449.6 949.42 454.93 951.56 457.08 954.75 453.89 958.92 458.06 963.1 453.89 967.27 458.06 971.44 453.89 975.62 458.06 980.86 452.82 978.72 450.67 975.62 453.78"/>
        <g>
          <path class="cls-6" d="M634.53,382.65c.03-.5,.05-1,.05-1.5,0-12.13-7.01-23.62-21.8-23.62-12.2,0-16.54,7.03-19.93,14.72-1.9-1.63-4.37-2.61-7.06-2.61-6.03,0-10.92,4.92-10.92,11,0,.64,.06,1.27,.16,1.88-8.23,1.31-14.52,8.49-14.52,17.15,0,9.59,7.72,17.37,17.23,17.37h53.33c9.52,0,17.23-7.77,17.23-17.37,0-8.4-5.92-15.4-13.77-17.01Z"/>
          <path class="cls-1" d="M634.53,382.65c.03-.5,.05-1,.05-1.5,0-12.13-7.01-23.62-21.8-23.62-12.2,0-16.54,7.03-19.93,14.72-1.9-1.63-4.37-2.61-7.06-2.61-6.03,0-10.92,4.92-10.92,11,0,.64,.06,1.27,.16,1.88-8.23,1.31-14.52,8.49-14.52,17.15,0,9.59,7.72,17.37,17.23,17.37h53.33c9.52,0,17.23-7.77,17.23-17.37,0-8.4-5.92-15.4-13.77-17.01Zm-3.46,30.85h-53.33c-7.56,0-13.7-6.21-13.7-13.84,0-6.85,4.86-12.6,11.55-13.66,.93-.15,1.77-.66,2.32-1.43,.55-.77,.77-1.72,.61-2.65-.07-.43-.11-.85-.11-1.28,0-4.12,3.32-7.47,7.39-7.47,1.75,0,3.44,.62,4.76,1.76,.65,.55,1.46,.85,2.3,.85,.26,0,.52-.03,.78-.09,1.09-.25,2-1,2.45-2.02,3.61-8.18,7.34-12.62,16.7-12.62,13.48,0,18.27,10.82,18.27,20.09,0,.4-.02,.82-.04,1.27-.12,1.76,1.08,3.34,2.81,3.69,6.35,1.31,10.96,7.01,10.96,13.56,0,7.63-6.15,13.84-13.7,13.84Z"/>
        </g>
        <path class="cls-4" d="M634.96,381.73c0-.19,0-.39,0-.58,0-12.34-7.1-24.8-22.97-24.8-12.33,0-17.14,7.04-20.4,14.08-1.95-1.27-4.24-1.96-6.59-1.96-6.67,0-12.1,5.46-12.1,12.18,0,.31,.01,.62,.04,.93-8.41,1.87-14.4,9.3-14.4,18.1,0,10.22,8.26,18.54,18.41,18.54h53.33c10.15,0,18.41-8.32,18.41-18.54,0-8.43-5.72-15.82-13.73-17.94Zm-4.68,34.13h-53.33c-8.85,0-16.06-7.26-16.06-16.19,0-8.02,5.69-14.74,13.53-15.99l1.18-.19-.2-1.17c-.1-.56-.15-1.13-.15-1.68,0-5.42,4.37-9.83,9.74-9.83,2.31,0,4.54,.83,6.29,2.33l1.2,1.03,.64-1.45c3.26-7.39,7.15-14.02,18.86-14.02,14.24,0,20.62,11.27,20.62,22.44,0,.48-.02,.96-.05,1.43l-.07,1.02,1,.21c7.44,1.53,12.83,8.2,12.83,15.86,0,8.93-7.2,16.19-16.06,16.19Z"/>
        <g>
          <path class="cls-6" d="M996.23,406.59c.03-.5,.05-1,.05-1.5,0-12.13-7.01-23.62-21.8-23.62-12.2,0-16.54,7.03-19.93,14.72-1.9-1.63-4.37-2.61-7.06-2.61-6.03,0-10.92,4.92-10.92,11,0,.64,.06,1.27,.16,1.88-8.23,1.31-14.52,8.49-14.52,17.15,0,9.59,7.72,17.37,17.23,17.37h53.33c9.52,0,17.23-7.77,17.23-17.37,0-8.4-5.92-15.4-13.77-17.01Z"/>
          <path class="cls-1" d="M996.23,406.59c.03-.5,.05-1,.05-1.5,0-12.13-7.01-23.62-21.8-23.62-12.2,0-16.54,7.03-19.93,14.72-1.9-1.63-4.37-2.61-7.06-2.61-6.03,0-10.92,4.92-10.92,11,0,.64,.06,1.27,.16,1.88-8.23,1.31-14.52,8.49-14.52,17.15,0,9.59,7.72,17.37,17.23,17.37h53.33c9.52,0,17.23-7.77,17.23-17.37,0-8.4-5.92-15.4-13.77-17.01Zm-3.46,30.85h-53.33c-7.56,0-13.7-6.21-13.7-13.84,0-6.85,4.86-12.6,11.55-13.66,.93-.15,1.77-.66,2.32-1.43,.55-.77,.77-1.72,.61-2.65-.07-.43-.11-.85-.11-1.28,0-4.12,3.32-7.47,7.39-7.47,1.75,0,3.44,.62,4.76,1.76,.65,.55,1.46,.85,2.3,.85,.26,0,.52-.03,.78-.09,1.09-.25,2-1,2.45-2.02,3.61-8.18,7.34-12.62,16.7-12.62,13.48,0,18.27,10.82,18.27,20.09,0,.4-.02,.82-.04,1.27-.12,1.76,1.08,3.34,2.81,3.69,6.35,1.31,10.96,7.01,10.96,13.56,0,7.63-6.15,13.84-13.7,13.84Z"/>
        </g>
        <path class="cls-4" d="M996.66,405.67c0-.19,0-.39,0-.58,0-12.34-7.1-24.8-22.97-24.8-12.33,0-17.14,7.04-20.4,14.08-1.95-1.27-4.24-1.96-6.59-1.96-6.67,0-12.1,5.46-12.1,12.18,0,.31,.01,.62,.04,.93-8.41,1.87-14.4,9.3-14.4,18.1,0,10.22,8.26,18.54,18.41,18.54h53.33c10.15,0,18.41-8.32,18.41-18.54,0-8.43-5.72-15.82-13.73-17.94Zm-4.68,34.13h-53.33c-8.85,0-16.06-7.26-16.06-16.19,0-8.02,5.69-14.74,13.53-15.99l1.18-.19-.2-1.17c-.1-.56-.15-1.13-.15-1.68,0-5.42,4.37-9.83,9.74-9.83,2.31,0,4.54,.83,6.29,2.33l1.2,1.03,.64-1.45c3.26-7.39,7.15-14.02,18.86-14.02,14.24,0,20.62,11.27,20.62,22.44,0,.48-.02,.96-.05,1.43l-.07,1.02,1,.21c7.44,1.53,12.83,8.2,12.83,15.86,0,8.93-7.2,16.19-16.06,16.19Z"/>
        <polygon class="cls-4" points="1249.58 447 1245.41 442.83 1241.24 447 1237.06 442.83 1232.89 447 1228.72 442.83 1223.39 448.16 1225.53 450.3 1228.72 447.11 1232.89 451.29 1237.06 447.11 1241.24 451.29 1245.41 447.11 1249.58 451.29 1254.83 446.04 1252.68 443.9 1249.58 447"/>
        <g>
          <path class="cls-6" d="M1270.2,399.82c.03-.5,.05-1,.05-1.5,0-12.13-7.01-23.62-21.8-23.62-12.2,0-16.54,7.03-19.93,14.72-1.9-1.63-4.37-2.61-7.06-2.61-6.03,0-10.92,4.92-10.92,11,0,.64,.06,1.27,.16,1.88-8.23,1.31-14.52,8.49-14.52,17.15,0,9.59,7.72,17.37,17.23,17.37h53.33c9.52,0,17.23-7.77,17.23-17.37,0-8.4-5.92-15.4-13.77-17.01Z"/>
          <path class="cls-1" d="M1270.2,399.82c.03-.5,.05-1,.05-1.5,0-12.13-7.01-23.62-21.8-23.62-12.2,0-16.54,7.03-19.93,14.72-1.9-1.63-4.37-2.61-7.06-2.61-6.03,0-10.92,4.92-10.92,11,0,.64,.06,1.27,.16,1.88-8.23,1.31-14.52,8.49-14.52,17.15,0,9.59,7.72,17.37,17.23,17.37h53.33c9.52,0,17.23-7.77,17.23-17.37,0-8.4-5.92-15.4-13.77-17.01Zm-3.46,30.85h-53.33c-7.56,0-13.7-6.21-13.7-13.84,0-6.85,4.86-12.6,11.55-13.66,.93-.15,1.77-.66,2.32-1.43,.55-.77,.77-1.72,.61-2.65-.07-.43-.11-.85-.11-1.28,0-4.12,3.32-7.47,7.39-7.47,1.75,0,3.44,.62,4.76,1.76,.65,.55,1.46,.85,2.3,.85,.26,0,.52-.03,.78-.09,1.09-.25,2-1,2.45-2.02,3.61-8.18,7.34-12.62,16.7-12.62,13.48,0,18.27,10.82,18.27,20.09,0,.4-.02,.82-.04,1.27-.12,1.76,1.08,3.34,2.81,3.69,6.35,1.31,10.96,7.01,10.96,13.56,0,7.63-6.15,13.84-13.7,13.84Z"/>
        </g>
        <path class="cls-4" d="M1270.63,398.9c0-.19,0-.39,0-.58,0-12.34-7.1-24.8-22.97-24.8-12.33,0-17.14,7.04-20.4,14.08-1.95-1.27-4.24-1.96-6.59-1.96-6.67,0-12.1,5.46-12.1,12.18,0,.31,.01,.62,.04,.93-8.41,1.87-14.4,9.3-14.4,18.1,0,10.22,8.26,18.54,18.41,18.54h53.33c10.15,0,18.41-8.32,18.41-18.54,0-8.43-5.72-15.82-13.73-17.94Zm-4.68,34.13h-53.33c-8.85,0-16.06-7.26-16.06-16.19,0-8.02,5.69-14.74,13.53-15.99l1.18-.19-.2-1.17c-.1-.56-.15-1.13-.15-1.68,0-5.42,4.37-9.83,9.74-9.83,2.31,0,4.54,.83,6.29,2.33l1.2,1.03,.64-1.45c3.26-7.39,7.15-14.02,18.86-14.02,14.24,0,20.62,11.27,20.62,22.44,0,.48-.02,.96-.05,1.43l-.07,1.02,1,.21c7.44,1.53,12.83,8.2,12.83,15.86,0,8.93-7.2,16.19-16.06,16.19Z"/>
        <path class="cls-4" d="M788.91,410.95c-8.95,0-17.84,1.13-26.42,3.36l1.16,4.48c8.2-2.13,16.7-3.21,25.26-3.21,55.31,0,100.31,45,100.31,100.31,0,21.42-6.65,41.85-19.24,59.09l3.73,2.73c13.17-18.04,20.13-39.41,20.13-61.82,0-57.86-47.07-104.94-104.94-104.94Z"/>
        <g>
          <path class="cls-4" d="M1380.21,403.97l1.32,4.43c2.95-.88,5.98-1.65,8.99-2.28l-.95-4.53c-3.13,.66-6.28,1.45-9.36,2.37Z"/>
          <path class="cls-4" d="M1331,433.38l3.27,3.27c2.18-2.18,4.47-4.29,6.82-6.28l-2.99-3.53c-2.44,2.07-4.83,4.27-7.09,6.54Z"/>
          <path class="cls-4" d="M1345.7,420.89l2.69,3.76c2.51-1.8,5.12-3.51,7.75-5.08l-2.37-3.97c-2.74,1.64-5.46,3.42-8.07,5.29Z"/>
          <path class="cls-4" d="M1362.25,411l2.04,4.15c2.75-1.35,5.61-2.61,8.48-3.73l-1.69-4.3c-2.99,1.17-5.96,2.48-8.83,3.89Z"/>
          <path class="cls-4" d="M1297.73,501.54l4.59,.56c.37-3.05,.88-6.13,1.51-9.15l-4.53-.94c-.65,3.14-1.18,6.34-1.57,9.52Z"/>
          <path class="cls-4" d="M1308.66,464.68l4.15,2.03c1.35-2.76,2.83-5.5,4.41-8.15l-3.97-2.37c-1.65,2.76-3.19,5.62-4.6,8.49Z"/>
          <path class="cls-4" d="M1301.66,482.66l4.43,1.31c.88-2.96,1.89-5.91,3-8.77l-4.31-1.68c-1.16,2.98-2.21,6.05-3.13,9.14Z"/>
          <path class="cls-4" d="M1318.53,448.1l3.76,2.69c1.78-2.49,3.7-4.96,5.7-7.32l-3.53-2.99c-2.08,2.46-4.07,5.02-5.93,7.62Z"/>
          <path class="cls-4" d="M1470.96,419.48c2.64,1.58,5.25,3.28,7.76,5.07l2.69-3.77c-2.61-1.86-5.33-3.64-8.08-5.28l-2.37,3.97Z"/>
          <path class="cls-4" d="M1486.04,430.25c2.36,1.99,4.65,4.1,6.82,6.27l3.27-3.27c-2.26-2.26-4.65-4.46-7.1-6.54l-2.99,3.53Z"/>
          <path class="cls-4" d="M1499.15,443.34c1.98,2.34,3.9,4.8,5.71,7.31l3.76-2.7c-1.87-2.61-3.87-5.17-5.94-7.61l-3.53,2.99Z"/>
          <path class="cls-4" d="M1523.39,492.77c.63,3,1.14,6.07,1.52,9.15l4.59-.57c-.4-3.2-.93-6.4-1.59-9.52l-4.53,.95Z"/>
          <path class="cls-4" d="M1418.17,403.83c3.09,.12,6.2,.37,9.24,.75l.56-4.59c-3.16-.39-6.4-.65-9.62-.78l-.19,4.62Z"/>
          <path class="cls-4" d="M1454.31,411.35c2.86,1.12,5.72,2.37,8.5,3.72l2.03-4.15c-2.89-1.41-5.86-2.71-8.84-3.87l-1.68,4.31Z"/>
          <path class="cls-4" d="M1399.08,400.01l.57,4.59c3.05-.38,6.16-.64,9.24-.77l-.19-4.62c-3.21,.13-6.44,.4-9.62,.8Z"/>
          <path class="cls-4" d="M1436.55,406.08c3.02,.63,6.05,1.39,8.99,2.26l1.31-4.43c-3.06-.91-6.21-1.7-9.36-2.36l-.94,4.53Z"/>
        </g>
        <path class="cls-5" d="M1415.53,490.36c-1.58,.02-2.92,1.3-2.92,2.97v17.59l-13.05-3.44-1.82-4.91c-.23-.6-.74-1.05-1.37-1.2-1.19-.27-2.34,.64-2.34,1.87v6.93c0,2.41,1.62,4.52,3.95,5.13l38.91,10.32h0c.31,.06,.62,.1,.93,.1,2.2,0,3.98-1.78,3.98-3.98h0c0-1.91-1.36-3.55-3.23-3.91l-13.26-3.55-6.93-21.86c-.32-1-1.14-1.76-2.17-2-.23-.05-.46-.07-.69-.07Zm-18.84,43.32c-1.47,0-2.65,1.19-2.65,2.65s1.19,2.65,2.65,2.65h42.47c1.47,0,2.65-1.19,2.65-2.65s-1.19-2.65-2.65-2.65h-42.47Z"/>
        <path class="cls-5" d="M469.16,489.68c-.24,0-.48,.04-.71,.11-1.69,.51-2.46,2.46-1.59,3.99l8.9,15.53-13.52,3.57-3.94-3.31c-.54-.45-1.27-.6-1.94-.4-1.3,.39-1.89,1.89-1.2,3.06l3.42,5.84c1.2,2.05,3.63,3.06,5.93,2.45l39.08-10.3s.01,0,.02,0c1.9-.33,3.29-1.99,3.29-3.92,0-2.2-1.78-3.98-3.98-3.98-.35,0-.69,.05-1.03,.13h0s-13.88,3.65-13.88,3.65l-16.9-15.69c-.54-.5-1.24-.75-1.95-.73Zm-11.09,39.17c-1.47,0-2.65,1.19-2.65,2.65s1.19,2.65,2.65,2.65h42.47c1.47,0,2.65-1.19,2.65-2.65s-1.19-2.65-2.65-2.65h-42.47Z"/>
      </g>
      <g>
        <path class="cls-7" d="M1598.03,223.98v101.54c0,12.5-10.13,22.63-22.63,22.63H344.46c-12.5,0-22.63,10.13-22.63,22.63v122.14c0,12.5,10.13,22.63,22.63,22.63h0"/>
        <polygon class="cls-5" points="333.22 530.36 339.52 515.55 333.22 500.74 368.34 515.55 333.22 530.36"/>
      </g>
      <g>
        <path class="cls-5" d="M785.05,794.98c-.23-.04-.46-.06-.7-.04-1.71,.13-2.85,1.81-2.34,3.45l5.16,16.57-13.55,.54-3.03-3.96c-.41-.54-1.08-.84-1.76-.79-1.31,.09-2.18,1.39-1.78,2.64l2.01,6.24c.71,2.2,2.79,3.66,5.1,3.57l39.16-1.54s.01,0,.02,0c1.87,.08,3.53-1.19,3.94-3.02,.46-2.08-.85-4.14-2.93-4.61-.33-.07-.66-.1-1-.09h0s-13.91,.54-13.91,.54l-12.7-18.4c-.4-.58-1.01-.97-1.69-1.1Zm-14.98,40.81c-1.47,0-2.65,1.19-2.65,2.65s1.19,2.65,2.65,2.65h42.47c1.47,0,2.65-1.19,2.65-2.65s-1.19-2.65-2.65-2.65h-42.47Z"/>
        <path class="cls-5" d="M1096.05,794.98c-.23-.04-.46-.06-.7-.04-1.71,.13-2.85,1.81-2.34,3.45l5.16,16.57-13.55,.54-3.03-3.96c-.41-.54-1.08-.84-1.76-.79-1.31,.09-2.18,1.39-1.78,2.64l2.01,6.24c.71,2.2,2.79,3.66,5.1,3.57l39.16-1.54s.01,0,.02,0c1.87,.08,3.53-1.19,3.94-3.02,.46-2.08-.85-4.14-2.93-4.61-.33-.07-.66-.1-1-.09h0s-13.91,.54-13.91,.54l-12.7-18.4c-.4-.58-1.01-.97-1.69-1.1Zm-14.98,40.81c-1.47,0-2.65,1.19-2.65,2.65s1.19,2.65,2.65,2.65h42.47c1.47,0,2.65-1.19,2.65-2.65s-1.19-2.65-2.65-2.65h-42.47Z"/>
        <g>
          <path class="cls-3" d="M525.33,777.42c1.09,1.09,2.15,2.21,3.17,3.37l7.02-7.02-3.27-3.27-6.92,6.92Z"/>
          <path class="cls-3" d="M535.01,789.64c.84,1.36,1.63,2.74,2.38,4.16l20.04-20.04-3.27-3.27-19.14,19.14Z"/>
          <path class="cls-3" d="M541.79,804.12c.56,1.66,1.05,3.35,1.48,5.06l35.41-35.41-3.27-3.27-33.62,33.62Z"/>
          <path class="cls-3" d="M545.32,822.15c.03,.48,.08,.95,.1,1.43,.08,1.7,.05,3.37-.03,5.04l54.86-54.86-3.27-3.27-51.65,51.65Z"/>
          <path class="cls-3" d="M541.45,846.59c-2.19,5.51-5.18,10.68-8.84,15.38l88.2-88.2-3.27-3.27-76.09,76.09Z"/>
          <rect class="cls-3" x="517.54" y="821.13" width="145.13" height="4.62" transform="translate(-409.43 658.45) rotate(-45)"/>
          <rect class="cls-3" x="538.72" y="821.13" width="145.13" height="4.62" transform="translate(-403.22 673.43) rotate(-45)"/>
          <path class="cls-3" d="M583.24,876.39l84.79-84.79c1.01-3.36,2.16-6.69,3.45-9.98l-91.51,91.51,3.27,3.27Z"/>
          <path class="cls-3" d="M603.49,876.39l59.99-59.99c.15-2.4,.37-4.82,.7-7.24l-63.96,63.96,3.27,3.27Z"/>
          <path class="cls-3" d="M621.55,873.12l3.27,3.27,39.42-39.42c-.22-1.99-.41-3.99-.56-5.98l-42.13,42.13Z"/>
          <path class="cls-3" d="M642.87,873.12l3.27,3.27,21.21-21.21c-.42-1.79-.81-3.58-1.16-5.38l-23.32,23.32Z"/>
          <path class="cls-3" d="M664.71,873.12l3.27,3.27,4.4-4.4c-.59-1.6-1.17-3.21-1.7-4.84l-5.97,5.97Z"/>
          <path class="cls-3" d="M906.18,780.42c.58,1.62,1.14,3.24,1.66,4.88l11.52-11.52-3.27-3.27-9.92,9.92Z"/>
          <path class="cls-3" d="M911.18,797.76c.4,1.81,.77,3.62,1.1,5.44l29.43-29.43-3.27-3.27-27.26,27.26Z"/>
          <path class="cls-3" d="M914.03,815.21c.21,2,.39,4,.54,6l47.45-47.45-3.27-3.27-44.71,44.71Z"/>
          <path class="cls-3" d="M914.66,835.91c-.17,2.43-.41,4.86-.77,7.31l69.44-69.44-3.27-3.27-65.41,65.41Z"/>
          <path class="cls-3" d="M909.31,862.58c-1.14,3.51-2.44,6.99-3.88,10.42l99.23-99.23-3.27-3.27-92.08,92.08Z"/>
          <rect class="cls-3" x="900.47" y="821.13" width="145.13" height="4.62" transform="translate(-297.27 929.22) rotate(-45)"/>
          <path class="cls-3" d="M963.47,857.61l54.23-54.23c.88-3.38,2.01-6.68,3.35-9.89l-61.83,61.83c1.49,.63,2.95,1.36,4.25,2.29Z"/>
          <path class="cls-3" d="M1015.43,820.44l-42.08,42.08c2.12,.02,4.24,.09,6.35,.19l35.97-35.97c-.06-.86-.14-1.72-.17-2.59-.06-1.25-.07-2.49-.05-3.72Z"/>
          <path class="cls-3" d="M993.31,863.88c.42,.05,.85,.09,1.27,.14,2.01-.54,4.11-.88,6.23-1.1l18.03-18.03c-.49-1.73-.92-3.47-1.3-5.24l-24.22,24.22Z"/>
          <path class="cls-3" d="M1015.16,863.36c1.89,.28,3.74,.61,5.54,1l4.06-4.06c-.73-1.47-1.43-2.95-2.07-4.47l-7.52,7.52Z"/>
          <path class="cls-3" d="M1165.03,777.46c.89,1.3,1.75,2.62,2.57,3.97l7.66-7.66-3.27-3.27-6.96,6.96Z"/>
          <path class="cls-3" d="M1172.68,791.14c.68,1.52,1.33,3.05,1.93,4.61l21.98-21.98-3.27-3.27-20.64,20.64Z"/>
          <path class="cls-3" d="M1177.88,806.24c.44,1.77,.84,3.55,1.18,5.36l37.83-37.83-3.27-3.27-35.74,35.74Z"/>
          <path class="cls-3" d="M1180.52,825.95c.04,2.26,0,4.5-.17,6.71l58.89-58.89-3.27-3.27-55.45,55.45Z"/>
          <path class="cls-3" d="M1176.19,851.59c-1.56,4.27-3.51,8.39-5.79,12.33l90.16-90.16-3.27-3.27-81.1,81.1Z"/>
          <rect class="cls-3" x="1156.37" y="821.13" width="145.13" height="4.62" transform="translate(-222.32 1110.17) rotate(-45)"/>
          <rect class="cls-3" x="1176.93" y="821.13" width="145.13" height="4.62" transform="translate(-216.3 1124.71) rotate(-45)"/>
          <path class="cls-3" d="M1221.91,876.39l82.3-82.3c1.19-3.61,2.57-7.18,4.13-10.67l-89.69,89.69,3.27,3.27Z"/>
          <path class="cls-3" d="M1243.24,876.39l56.19-56.19c.06-2.34,.27-4.71,.54-7.08l-60,60,3.27,3.27Z"/>
          <path class="cls-3" d="M1261.29,873.12l3.27,3.27,36.34-36.34c-.29-1.93-.53-3.86-.74-5.8l-38.87,38.87Z"/>
          <path class="cls-3" d="M1285.94,869.28c.9,.05,1.82,.16,2.75,.32,.94,.17,1.86,.42,2.77,.7l5.39-5.39c-.33-1.86-.64-3.73-.94-5.6l-9.97,9.97Z"/>
          <path class="cls-3" d="M1526.16,799.43c.42,1.8,.79,3.6,1.13,5.41"/>
          <path class="cls-3" d="M1529.09,818.06c.18,2.04,.33,4.07,.42,6.11,0,0,0,.01,0,.02"/>
          <path class="cls-3" d="M1528.55,839.85c-.43,2.74-1,5.49-1.69,8.22"/>
          <path class="cls-3" d="M1517.23,873.08s-.02,.04-.03,.06l3.26,3.26"/>
          <path class="cls-4" d="M1302.02,821.57h-117.65c-1.23-46.39-39.35-83.75-86.03-83.75s-84.81,37.36-86.04,83.75h-100.3v2.31c0,67.58-54.98,122.55-122.55,122.55s-122.55-54.98-122.55-122.55v-2.31h-120.24c-1.22-35.4-30.4-63.83-66.1-63.83s-64.87,28.43-66.1,63.83h-38.55c.75,1.42,.95,3.13,.47,4.62h42.67v-2.31c0-33.92,27.59-61.51,61.51-61.51s61.51,27.59,61.51,61.51v2.31h120.22c1.24,69.07,57.8,124.87,127.16,124.87s125.92-55.8,127.16-124.87h100.29v-2.31c0-44.91,36.54-81.44,81.44-81.44s81.44,36.53,81.44,81.44v2.31h117.64c.12,5.98,.72,11.84,1.7,17.58,.4-.04,.8-.06,1.19-.06,.17,0,.35,.02,.52,.03,.6-.28,1.22-.52,1.85-.73,.31-.1,.63-.17,.96-.24-1.05-6.14-1.62-12.45-1.62-18.89v-2.31Z"/>
          <path class="cls-4" d="M1532.03,821.57h-5.71v2.31c0,61.84-50.31,112.15-112.15,112.15-32.02,0-60.93-13.5-81.39-35.09-.76,.13-1.56,.21-2.41,.21-.25,0-.49-.02-.73-.04-.14,0-.28,.04-.42,.04-.9,0-1.77-.06-2.62-.16,21.41,24.3,52.72,39.67,87.58,39.67,63.61,0,115.51-51.14,116.75-114.46h1.25c-.38-1.57-.41-3.13-.14-4.62Z"/>
          <g>
            <path class="cls-4" d="M448.38,881.98c2.76,1.5,5.64,2.82,8.58,3.91l1.61-4.33c-2.73-1.02-5.42-2.24-7.98-3.64l-2.22,4.06Z"/>
            <path class="cls-4" d="M422.02,855.7c1.51,2.74,3.23,5.4,5.12,7.91l3.69-2.78c-1.76-2.33-3.36-4.81-4.76-7.36l-4.05,2.23Z"/>
            <path class="cls-4" d="M433.32,870.73c2.22,2.21,4.62,4.29,7.13,6.16l2.77-3.71c-2.33-1.74-4.57-3.67-6.63-5.73l-3.27,3.27Z"/>
            <path class="cls-4" d="M466.02,888.54c3.05,.66,6.19,1.11,9.33,1.32l.32-4.61c-2.92-.2-5.84-.62-8.68-1.23l-.98,4.52Z"/>
            <path class="cls-4" d="M419.93,837.12l-4.52,.99c.67,3.07,1.57,6.11,2.67,9.04l4.33-1.63c-1.02-2.72-1.86-5.55-2.49-8.4Z"/>
            <path class="cls-4" d="M537.65,845.44l4.33,1.62c1.1-2.94,2-5.98,2.66-9.05l-4.52-.98c-.62,2.85-1.45,5.68-2.47,8.41Z"/>
            <path class="cls-4" d="M484.44,885.24l.33,4.61c3.13-.22,6.27-.67,9.33-1.34l-.98-4.52c-2.84,.62-5.76,1.03-8.68,1.24Z"/>
            <path class="cls-4" d="M529.24,860.78l3.7,2.78c1.89-2.51,3.61-5.18,5.11-7.92l-4.06-2.22c-1.4,2.55-3,5.03-4.75,7.37Z"/>
            <path class="cls-4" d="M516.87,873.14l2.77,3.7c2.5-1.88,4.9-3.95,7.12-6.17l-3.27-3.27c-2.07,2.07-4.3,4-6.63,5.74Z"/>
            <path class="cls-4" d="M501.53,881.53l1.62,4.33c2.93-1.1,5.81-2.41,8.57-3.92l-2.22-4.06c-2.56,1.4-5.24,2.63-7.97,3.64Z"/>
          </g>
          <g>
            <path class="cls-4" d="M705.9,727.53l3.02,3.5c2.31-1.99,4.71-3.91,7.16-5.72l-2.75-3.72c-2.54,1.88-5.03,3.87-7.43,5.93Z"/>
            <path class="cls-4" d="M692.88,740.51c1.51-.2,3.06-.16,4.51,.33,.36,.12,.68,.29,1,.45,1.25-1.37,2.51-2.72,3.82-4.03l-3.27-3.27c-2.09,2.1-4.12,4.29-6.06,6.51Z"/>
            <path class="cls-4" d="M666.02,791.01l4.47,1.19c.78-2.94,1.69-5.88,2.69-8.75l-4.36-1.53c-1.04,2.98-1.98,6.04-2.8,9.09Z"/>
            <path class="cls-4" d="M662.51,809.69l4.6,.51c.33-3.02,.79-6.07,1.35-9.06l-4.55-.85c-.58,3.1-1.05,6.27-1.4,9.4Z"/>
            <path class="cls-4" d="M721.18,716.23l2.47,3.91c2.58-1.62,5.24-3.17,7.93-4.59l-2.17-4.09c-2.78,1.48-5.55,3.08-8.22,4.76Z"/>
            <path class="cls-4" d="M755.88,701.04l1.2,4.47c2.94-.79,5.94-1.47,8.93-2.04l-.86-4.54c-3.1,.58-6.22,1.3-9.27,2.11Z"/>
            <path class="cls-4" d="M897.8,767.64c1.2,2.32,2.35,4.69,3.4,7.08l4.24-1.86c-.75-1.7-1.55-3.4-2.37-5.07-1.75,0-3.51-.05-5.26-.15Z"/>
            <path class="cls-4" d="M904.56,783.23c1.01,2.87,1.92,5.82,2.71,8.75l4.47-1.2c-.82-3.04-1.77-6.1-2.81-9.08l-4.36,1.53Z"/>
            <path class="cls-4" d="M909.31,800.91c.57,2.99,1.03,6.04,1.37,9.06l4.6-.52c-.35-3.13-.83-6.3-1.42-9.4l-4.54,.86Z"/>
            <path class="cls-4" d="M737.96,707.33l1.85,4.24c2.78-1.22,5.65-2.35,8.52-3.35l-1.53-4.36c-2.98,1.05-5.95,2.22-8.84,3.48Z"/>
            <path class="cls-4" d="M774.56,697.51l.52,4.6c3.01-.34,6.08-.57,9.14-.68l-.17-4.62c-3.17,.12-6.36,.36-9.48,.71Z"/>
            <path class="cls-4" d="M793.37,701.41c3.03,.11,6.11,.33,9.14,.67l.5-4.6c-3.14-.34-6.33-.58-9.48-.69l-.17,4.62Z"/>
            <path class="cls-4" d="M811.57,703.43c2.98,.56,5.99,1.24,8.94,2.02l1.19-4.47c-3.06-.81-6.18-1.52-9.27-2.1l-.85,4.55Z"/>
          </g>
          <g>
            <path class="cls-4" d="M1056.22,899.26c2.81,1.55,5.73,2.96,8.7,4.19l1.77-4.27c-2.81-1.16-5.58-2.5-8.23-3.96l-2.24,4.05Z"/>
            <path class="cls-4" d="M1074.04,906.63c3.09,.89,6.26,1.6,9.42,2.13l.77-4.56c-2.99-.5-5.99-1.18-8.91-2.02l-1.27,4.44Z"/>
            <path class="cls-4" d="M1018.29,856.9c.8,1.93,1.71,3.83,2.66,5.71,1.68,.14,3.3,.55,4.87,1.13l.71-.4c-1.47-2.66-2.81-5.42-3.97-8.22l-4.27,1.77Z"/>
            <path class="cls-4" d="M1012.94,838.37c.54,3.17,1.26,6.34,2.15,9.41l4.44-1.28c-.84-2.91-1.52-5.91-2.03-8.9l-4.56,.77Z"/>
            <path class="cls-4" d="M1042,886.41c.17,1.05,.27,2.11,.23,3.16,1.88,1.59,3.81,3.13,5.8,4.55l2.68-3.77c-2.47-1.76-4.88-3.67-7.14-5.7l-1.57,1.76Z"/>
            <path class="cls-4" d="M1093.3,905.21l-.25,4.62c1.58,.09,3.16,.13,4.76,.13s3.27-.05,4.89-.14l-.26-4.62c-3.02,.17-6.12,.17-9.14,0Z"/>
            <path class="cls-4" d="M1158.56,878.12l3.45,3.08c2.13-2.39,4.16-4.93,6.02-7.55l-3.77-2.68c-1.76,2.48-3.68,4.88-5.7,7.14Z"/>
            <path class="cls-4" d="M1111.51,904.18l.77,4.56c3.17-.54,6.34-1.26,9.41-2.15l-1.28-4.44c-2.91,.84-5.91,1.52-8.9,2.03Z"/>
            <path class="cls-4" d="M1176.1,846.38l4.44,1.27c.88-3.08,1.6-6.25,2.13-9.41l-4.56-.77c-.5,2.99-1.18,5.99-2.02,8.91Z"/>
            <path class="cls-4" d="M1169.12,863.23l4.05,2.24c1.55-2.81,2.96-5.73,4.19-8.7l-4.27-1.77c-1.16,2.81-2.5,5.58-3.96,8.23Z"/>
            <path class="cls-4" d="M1129.03,899.12l1.77,4.27c2.95-1.23,5.87-2.64,8.69-4.2l-2.24-4.04c-2.66,1.47-5.43,2.81-8.22,3.97Z"/>
            <path class="cls-4" d="M1144.97,890.28l2.68,3.77c2.61-1.86,5.15-3.89,7.54-6.02l-3.08-3.45c-2.26,2.02-4.66,3.94-7.13,5.7Z"/>
          </g>
          <path class="cls-4" d="M480.56,866.64c-23.41,0-42.46-19.05-42.46-42.46,0-10.71,4-20.95,11.27-28.81l-3.4-3.14c-8.06,8.72-12.5,20.07-12.5,31.95,0,25.96,21.12,47.08,47.08,47.08,8.17,0,16.21-2.12,23.26-6.14l-2.29-4.02c-6.36,3.62-13.61,5.53-20.98,5.53Z"/>
          <path class="cls-4" d="M1097.8,888.81c-35.8,0-64.92-29.12-64.92-64.92,0-9.48,2-18.62,5.94-27.17l-4.2-1.94c-4.22,9.16-6.36,18.95-6.36,29.1,0,38.35,31.2,69.55,69.55,69.55,19.04,0,36.81-7.55,50.04-21.25l-3.33-3.21c-12.35,12.79-28.94,19.84-46.71,19.84Z"/>
          <path class="cls-4" d="M1317.25,823.89c0,6.32,.61,12.54,1.79,18.61,1.58-.21,3.2-.09,4.8,.44-1.3-6.2-1.97-12.57-1.97-19.05,0-50.6,41.16-91.76,91.76-91.76,16.01,0,31.78,4.19,45.58,12.1l2.3-4.01c-14.5-8.32-31.06-12.72-47.88-12.72-53.15,0-96.38,43.24-96.38,96.38Z"/>
          <polygon class="cls-4" points="612.64 744.16 606.27 737.79 599.9 744.16 593.53 737.79 587.15 744.16 580.78 737.79 572.64 745.93 575.91 749.2 580.78 744.33 587.15 750.7 593.53 744.33 599.9 750.7 606.27 744.33 612.64 750.7 620.65 742.69 617.38 739.42 612.64 744.16"/>
          <polygon class="cls-4" points="975.62 761.78 971.44 757.6 967.27 761.78 963.1 757.6 958.92 761.78 954.75 757.6 949.42 762.93 951.56 765.08 954.75 761.89 958.92 766.06 963.1 761.89 967.27 766.06 971.44 761.89 975.62 766.06 980.86 760.82 978.72 758.67 975.62 761.78"/>
          <g>
            <path class="cls-6" d="M634.53,690.65c.03-.5,.05-1,.05-1.5,0-12.13-7.01-23.62-21.8-23.62-12.2,0-16.54,7.03-19.93,14.72-1.9-1.63-4.37-2.61-7.06-2.61-6.03,0-10.92,4.92-10.92,11,0,.64,.06,1.27,.16,1.88-8.23,1.31-14.52,8.49-14.52,17.15,0,9.59,7.72,17.37,17.23,17.37h53.33c9.52,0,17.23-7.77,17.23-17.37,0-8.4-5.92-15.4-13.77-17.01Z"/>
            <path class="cls-1" d="M634.53,690.65c.03-.5,.05-1,.05-1.5,0-12.13-7.01-23.62-21.8-23.62-12.2,0-16.54,7.03-19.93,14.72-1.9-1.63-4.37-2.61-7.06-2.61-6.03,0-10.92,4.92-10.92,11,0,.64,.06,1.27,.16,1.88-8.23,1.31-14.52,8.49-14.52,17.15,0,9.59,7.72,17.37,17.23,17.37h53.33c9.52,0,17.23-7.77,17.23-17.37,0-8.4-5.92-15.4-13.77-17.01Zm-3.46,30.85h-53.33c-7.56,0-13.7-6.21-13.7-13.84,0-6.85,4.86-12.6,11.55-13.66,.93-.15,1.77-.66,2.32-1.43,.55-.77,.77-1.72,.61-2.65-.07-.43-.11-.85-.11-1.28,0-4.12,3.32-7.47,7.39-7.47,1.75,0,3.44,.62,4.76,1.76,.65,.55,1.46,.85,2.3,.85,.26,0,.52-.03,.78-.09,1.09-.25,2-1,2.45-2.02,3.61-8.18,7.34-12.62,16.7-12.62,13.48,0,18.27,10.82,18.27,20.09,0,.4-.02,.82-.04,1.27-.12,1.76,1.08,3.34,2.81,3.69,6.35,1.31,10.96,7.01,10.96,13.56,0,7.63-6.15,13.84-13.7,13.84Z"/>
          </g>
          <path class="cls-4" d="M634.96,689.73c0-.19,0-.39,0-.58,0-12.34-7.1-24.8-22.97-24.8-12.33,0-17.14,7.04-20.4,14.08-1.95-1.27-4.24-1.96-6.59-1.96-6.67,0-12.1,5.46-12.1,12.18,0,.31,.01,.62,.04,.93-8.41,1.87-14.4,9.3-14.4,18.1,0,10.22,8.26,18.54,18.41,18.54h53.33c10.15,0,18.41-8.32,18.41-18.54,0-8.43-5.72-15.82-13.73-17.94Zm-4.68,34.13h-53.33c-8.85,0-16.06-7.26-16.06-16.19,0-8.02,5.69-14.74,13.53-15.99l1.18-.19-.2-1.17c-.1-.56-.15-1.13-.15-1.68,0-5.42,4.37-9.83,9.74-9.83,2.31,0,4.54,.83,6.29,2.33l1.2,1.03,.64-1.45c3.26-7.39,7.15-14.02,18.86-14.02,14.24,0,20.62,11.27,20.62,22.44,0,.48-.02,.96-.05,1.43l-.07,1.02,1,.21c7.44,1.53,12.83,8.2,12.83,15.86,0,8.93-7.2,16.19-16.06,16.19Z"/>
          <g>
            <path class="cls-6" d="M996.23,714.59c.03-.5,.05-1,.05-1.5,0-12.13-7.01-23.62-21.8-23.62-12.2,0-16.54,7.03-19.93,14.72-1.9-1.63-4.37-2.61-7.06-2.61-6.03,0-10.92,4.92-10.92,11,0,.64,.06,1.27,.16,1.88-8.23,1.31-14.52,8.49-14.52,17.15,0,9.59,7.72,17.37,17.23,17.37h53.33c9.52,0,17.23-7.77,17.23-17.37,0-8.4-5.92-15.4-13.77-17.01Z"/>
            <path class="cls-1" d="M996.23,714.59c.03-.5,.05-1,.05-1.5,0-12.13-7.01-23.62-21.8-23.62-12.2,0-16.54,7.03-19.93,14.72-1.9-1.63-4.37-2.61-7.06-2.61-6.03,0-10.92,4.92-10.92,11,0,.64,.06,1.27,.16,1.88-8.23,1.31-14.52,8.49-14.52,17.15,0,9.59,7.72,17.37,17.23,17.37h53.33c9.52,0,17.23-7.77,17.23-17.37,0-8.4-5.92-15.4-13.77-17.01Zm-3.46,30.85h-53.33c-7.56,0-13.7-6.21-13.7-13.84,0-6.85,4.86-12.6,11.55-13.66,.93-.15,1.77-.66,2.32-1.43,.55-.77,.77-1.72,.61-2.65-.07-.43-.11-.85-.11-1.28,0-4.12,3.32-7.47,7.39-7.47,1.75,0,3.44,.62,4.76,1.76,.65,.55,1.46,.85,2.3,.85,.26,0,.52-.03,.78-.09,1.09-.25,2-1,2.45-2.02,3.61-8.18,7.34-12.62,16.7-12.62,13.48,0,18.27,10.82,18.27,20.09,0,.4-.02,.82-.04,1.27-.12,1.76,1.08,3.34,2.81,3.69,6.35,1.31,10.96,7.01,10.96,13.56,0,7.63-6.15,13.84-13.7,13.84Z"/>
          </g>
          <path class="cls-4" d="M996.66,713.67c0-.19,0-.39,0-.58,0-12.34-7.1-24.8-22.97-24.8-12.33,0-17.14,7.04-20.4,14.08-1.95-1.27-4.24-1.96-6.59-1.96-6.67,0-12.1,5.46-12.1,12.18,0,.31,.01,.62,.04,.93-8.41,1.87-14.4,9.3-14.4,18.1,0,10.22,8.26,18.54,18.41,18.54h53.33c10.15,0,18.41-8.32,18.41-18.54,0-8.43-5.72-15.82-13.73-17.94Zm-4.68,34.13h-53.33c-8.85,0-16.06-7.26-16.06-16.19,0-8.02,5.69-14.74,13.53-15.99l1.18-.19-.2-1.17c-.1-.56-.15-1.13-.15-1.68,0-5.42,4.37-9.83,9.74-9.83,2.31,0,4.54,.83,6.29,2.33l1.2,1.03,.64-1.45c3.26-7.39,7.15-14.02,18.86-14.02,14.24,0,20.62,11.27,20.62,22.44,0,.48-.02,.96-.05,1.43l-.07,1.02,1,.21c7.44,1.53,12.83,8.2,12.83,15.86,0,8.93-7.2,16.19-16.06,16.19Z"/>
          <polygon class="cls-4" points="1249.58 755 1245.41 750.83 1241.24 755 1237.06 750.83 1232.89 755 1228.72 750.83 1223.39 756.16 1225.53 758.3 1228.72 755.11 1232.89 759.29 1237.06 755.11 1241.24 759.29 1245.41 755.11 1249.58 759.29 1254.83 754.04 1252.68 751.9 1249.58 755"/>
          <g>
            <path class="cls-6" d="M1270.2,707.82c.03-.5,.05-1,.05-1.5,0-12.13-7.01-23.62-21.8-23.62-12.2,0-16.54,7.03-19.93,14.72-1.9-1.63-4.37-2.61-7.06-2.61-6.03,0-10.92,4.92-10.92,11,0,.64,.06,1.27,.16,1.88-8.23,1.31-14.52,8.49-14.52,17.15,0,9.59,7.72,17.37,17.23,17.37h53.33c9.52,0,17.23-7.77,17.23-17.37,0-8.4-5.92-15.4-13.77-17.01Z"/>
            <path class="cls-1" d="M1270.2,707.82c.03-.5,.05-1,.05-1.5,0-12.13-7.01-23.62-21.8-23.62-12.2,0-16.54,7.03-19.93,14.72-1.9-1.63-4.37-2.61-7.06-2.61-6.03,0-10.92,4.92-10.92,11,0,.64,.06,1.27,.16,1.88-8.23,1.31-14.52,8.49-14.52,17.15,0,9.59,7.72,17.37,17.23,17.37h53.33c9.52,0,17.23-7.77,17.23-17.37,0-8.4-5.92-15.4-13.77-17.01Zm-3.46,30.85h-53.33c-7.56,0-13.7-6.21-13.7-13.84,0-6.85,4.86-12.6,11.55-13.66,.93-.15,1.77-.66,2.32-1.43,.55-.77,.77-1.72,.61-2.65-.07-.43-.11-.85-.11-1.28,0-4.12,3.32-7.47,7.39-7.47,1.75,0,3.44,.62,4.76,1.76,.65,.55,1.46,.85,2.3,.85,.26,0,.52-.03,.78-.09,1.09-.25,2-1,2.45-2.02,3.61-8.18,7.34-12.62,16.7-12.62,13.48,0,18.27,10.82,18.27,20.09,0,.4-.02,.82-.04,1.27-.12,1.76,1.08,3.34,2.81,3.69,6.35,1.31,10.96,7.01,10.96,13.56,0,7.63-6.15,13.84-13.7,13.84Z"/>
          </g>
          <path class="cls-4" d="M1270.63,706.9c0-.19,0-.39,0-.58,0-12.34-7.1-24.8-22.97-24.8-12.33,0-17.14,7.04-20.4,14.08-1.95-1.27-4.24-1.96-6.59-1.96-6.67,0-12.1,5.46-12.1,12.18,0,.31,.01,.62,.04,.93-8.41,1.87-14.4,9.3-14.4,18.1,0,10.22,8.26,18.54,18.41,18.54h53.33c10.15,0,18.41-8.32,18.41-18.54,0-8.43-5.72-15.82-13.73-17.94Zm-4.68,34.13h-53.33c-8.85,0-16.06-7.26-16.06-16.19,0-8.02,5.69-14.74,13.53-15.99l1.18-.19-.2-1.17c-.1-.56-.15-1.13-.15-1.68,0-5.42,4.37-9.83,9.74-9.83,2.31,0,4.54,.83,6.29,2.33l1.2,1.03,.64-1.45c3.26-7.39,7.15-14.02,18.86-14.02,14.24,0,20.62,11.27,20.62,22.44,0,.48-.02,.96-.05,1.43l-.07,1.02,1,.21c7.44,1.53,12.83,8.2,12.83,15.86,0,8.93-7.2,16.19-16.06,16.19Z"/>
          <path class="cls-4" d="M788.91,718.95c-8.95,0-17.84,1.13-26.42,3.36l1.16,4.48c8.2-2.13,16.7-3.21,25.26-3.21,55.31,0,100.31,45,100.31,100.31,0,21.42-6.65,41.85-19.24,59.09l3.73,2.73c13.17-18.04,20.13-39.41,20.13-61.82,0-57.86-47.07-104.94-104.94-104.94Z"/>
          <g>
            <path class="cls-4" d="M1380.21,711.97l1.32,4.43c2.95-.88,5.98-1.65,8.99-2.28l-.95-4.53c-3.13,.66-6.28,1.45-9.36,2.37Z"/>
            <path class="cls-4" d="M1331,741.38l3.27,3.27c2.18-2.18,4.47-4.29,6.82-6.28l-2.99-3.53c-2.44,2.07-4.83,4.27-7.09,6.54Z"/>
            <path class="cls-4" d="M1345.7,728.89l2.69,3.76c2.51-1.8,5.12-3.51,7.75-5.08l-2.37-3.97c-2.74,1.64-5.46,3.42-8.07,5.29Z"/>
            <path class="cls-4" d="M1362.25,719l2.04,4.15c2.75-1.35,5.61-2.61,8.48-3.73l-1.69-4.3c-2.99,1.17-5.96,2.48-8.83,3.89Z"/>
            <path class="cls-4" d="M1297.73,809.54l4.59,.56c.37-3.05,.88-6.13,1.51-9.15l-4.53-.94c-.65,3.14-1.18,6.34-1.57,9.52Z"/>
            <path class="cls-4" d="M1308.66,772.68l4.15,2.03c1.35-2.76,2.83-5.5,4.41-8.15l-3.97-2.37c-1.65,2.76-3.19,5.62-4.6,8.49Z"/>
            <path class="cls-4" d="M1301.66,790.66l4.43,1.31c.88-2.96,1.89-5.91,3-8.77l-4.31-1.68c-1.16,2.98-2.21,6.05-3.13,9.14Z"/>
            <path class="cls-4" d="M1318.53,756.1l3.76,2.69c1.78-2.49,3.7-4.96,5.7-7.32l-3.53-2.99c-2.08,2.46-4.07,5.02-5.93,7.62Z"/>
            <path class="cls-4" d="M1470.96,727.48c2.64,1.58,5.25,3.28,7.76,5.07l2.69-3.77c-2.61-1.86-5.33-3.64-8.08-5.28l-2.37,3.97Z"/>
            <path class="cls-4" d="M1486.04,738.25c2.36,1.99,4.65,4.1,6.82,6.27l3.27-3.27c-2.26-2.26-4.65-4.46-7.1-6.54l-2.99,3.53Z"/>
            <path class="cls-4" d="M1499.15,751.34c1.98,2.34,3.9,4.8,5.71,7.31l3.76-2.7c-1.87-2.61-3.87-5.17-5.94-7.61l-3.53,2.99Z"/>
            <path class="cls-4" d="M1523.39,800.77c.63,3,1.14,6.07,1.52,9.15l4.59-.57c-.4-3.2-.93-6.4-1.59-9.52l-4.53,.95Z"/>
            <path class="cls-4" d="M1418.17,711.83c3.09,.12,6.2,.37,9.24,.75l.56-4.59c-3.16-.39-6.4-.65-9.62-.78l-.19,4.62Z"/>
            <path class="cls-4" d="M1454.31,719.35c2.86,1.12,5.72,2.37,8.5,3.72l2.03-4.15c-2.89-1.41-5.86-2.71-8.84-3.87l-1.68,4.31Z"/>
            <path class="cls-4" d="M1399.08,708.01l.57,4.59c3.05-.38,6.16-.64,9.24-.77l-.19-4.62c-3.21,.13-6.44,.4-9.62,.8Z"/>
            <path class="cls-4" d="M1436.55,714.08c3.02,.63,6.05,1.39,8.99,2.26l1.31-4.43c-3.06-.91-6.21-1.7-9.36-2.36l-.94,4.53Z"/>
          </g>
          <path class="cls-5" d="M1415.53,798.36c-1.58,.02-2.92,1.3-2.92,2.97v17.59l-13.05-3.44-1.82-4.91c-.23-.6-.74-1.05-1.37-1.2-1.19-.27-2.34,.64-2.34,1.87v6.93c0,2.41,1.62,4.52,3.95,5.13l38.91,10.32h0c.31,.06,.62,.1,.93,.1,2.2,0,3.98-1.78,3.98-3.98h0c0-1.91-1.36-3.55-3.23-3.91l-13.26-3.55-6.93-21.86c-.32-1-1.14-1.76-2.17-2-.23-.05-.46-.07-.69-.07Zm-18.84,43.32c-1.47,0-2.65,1.19-2.65,2.65s1.19,2.65,2.65,2.65h42.47c1.47,0,2.65-1.19,2.65-2.65s-1.19-2.65-2.65-2.65h-42.47Z"/>
          <path class="cls-5" d="M469.16,797.68c-.24,0-.48,.04-.71,.11-1.69,.51-2.46,2.46-1.59,3.99l8.9,15.53-13.52,3.57-3.94-3.31c-.54-.45-1.27-.6-1.94-.4-1.3,.39-1.89,1.89-1.2,3.06l3.42,5.84c1.2,2.05,3.63,3.06,5.93,2.45l39.08-10.3s.01,0,.02,0c1.9-.33,3.29-1.99,3.29-3.92,0-2.2-1.78-3.98-3.98-3.98-.35,0-.69,.05-1.03,.13h0s-13.88,3.65-13.88,3.65l-16.9-15.69c-.54-.5-1.24-.75-1.95-.73Zm-11.09,39.17c-1.47,0-2.65,1.19-2.65,2.65s1.19,2.65,2.65,2.65h42.47c1.47,0,2.65-1.19,2.65-2.65s-1.19-2.65-2.65-2.65h-42.47Z"/>
        </g>
        <g>
          <path class="cls-7" d="M1598.03,531.98v101.54c0,12.5-10.13,22.63-22.63,22.63H344.46c-12.5,0-22.63,10.13-22.63,22.63v122.14c0,12.5,10.13,22.63,22.63,22.63h0"/>
          <polygon class="cls-5" points="333.22 838.36 339.52 823.55 333.22 808.74 368.34 823.55 333.22 838.36"/>
        </g>
      </g>
    </g>
  </g>
</svg>